<svg width="178" height="178" viewBox="0 0 178 178" fill="none" xmlns="http://www.w3.org/2000/svg">
<g filter="url(#filter0_d_2_479)">
<rect width="118" height="118" rx="10" transform="matrix(-1 0 0 1 148 30)" fill="white"/>
<path fill-rule="evenodd" clip-rule="evenodd" d="M99.6703 82.7232C99.6703 81.6833 100.513 80.8403 101.553 80.8403H109.085C109.457 80.8403 109.82 80.9502 110.13 81.1567L117.661 86.178C118.185 86.5272 118.5 87.115 118.5 87.7444V97.787C118.5 100.214 116.533 102.181 114.106 102.181H101.553C100.513 102.181 99.6703 101.338 99.6703 100.298V82.7232ZM103.436 84.6064V98.4149H114.106C114.453 98.4149 114.734 98.1336 114.734 97.787V88.7522L108.515 84.6064H103.436Z" fill="#1BB7B5"/>
<path opacity="0.4" fill-rule="evenodd" clip-rule="evenodd" d="M109.085 80.8403C110.125 80.8403 110.968 81.6833 110.968 82.7232V87.7444C110.968 89.4779 112.373 90.8829 114.106 90.8829H116.617C117.657 90.8829 118.5 91.7258 118.5 92.7657C118.5 93.8059 117.657 94.6489 116.617 94.6489H114.106C110.293 94.6489 107.202 91.5577 107.202 87.7444V82.7232C107.202 81.6833 108.045 80.8403 109.085 80.8403Z" fill="#1BB7B5"/>
<path fill-rule="evenodd" clip-rule="evenodd" d="M72.6812 102.18C71.6413 102.18 70.7984 103.024 70.7984 104.063C70.7984 105.103 71.6413 105.946 72.6812 105.946C73.7211 105.946 74.5644 105.103 74.5644 104.063C74.5644 103.024 73.7211 102.18 72.6812 102.18ZM67.0323 104.063C67.0323 100.943 69.5616 98.4146 72.6812 98.4146C75.8012 98.4146 78.3301 100.943 78.3301 104.063C78.3301 107.183 75.8012 109.712 72.6812 109.712C69.5616 109.712 67.0323 107.183 67.0323 104.063Z" fill="#1BB7B5"/>
<path fill-rule="evenodd" clip-rule="evenodd" d="M105.319 102.181C104.279 102.181 103.436 103.024 103.436 104.064C103.436 105.104 104.279 105.947 105.319 105.947C106.359 105.947 107.202 105.104 107.202 104.064C107.202 103.024 106.359 102.181 105.319 102.181ZM99.67 104.064C99.67 100.944 102.199 98.415 105.319 98.415C108.439 98.415 110.968 100.944 110.968 104.064C110.968 107.184 108.439 109.713 105.319 109.713C102.199 109.713 99.67 107.184 99.67 104.064Z" fill="#1BB7B5"/>
<path fill-rule="evenodd" clip-rule="evenodd" d="M66.4038 68.2871C62.5906 68.2871 59.4994 71.3783 59.4994 75.1912V97.7871C59.4994 100.213 61.4666 102.181 63.893 102.181H99.0419C101.469 102.181 103.436 100.213 103.436 97.7871V75.1912C103.436 71.3783 100.344 68.2871 96.5314 68.2871H66.4038Z" fill="#1BB7B5"/>
</g>
<defs>
<filter id="filter0_d_2_479" x="0" y="0" width="178" height="178" filterUnits="userSpaceOnUse" color-interpolation-filters="sRGB">
<feFlood flood-opacity="0" result="BackgroundImageFix"/>
<feColorMatrix in="SourceAlpha" type="matrix" values="0 0 0 0 0 0 0 0 0 0 0 0 0 0 0 0 0 0 127 0" result="hardAlpha"/>
<feOffset/>
<feGaussianBlur stdDeviation="15"/>
<feColorMatrix type="matrix" values="0 0 0 0 0.560784 0 0 0 0 0.560784 0 0 0 0 0.560784 0 0 0 0.2 0"/>
<feBlend mode="normal" in2="BackgroundImageFix" result="effect1_dropShadow_2_479"/>
<feBlend mode="normal" in="SourceGraphic" in2="effect1_dropShadow_2_479" result="shape"/>
</filter>
</defs>
</svg>
