<svg width="178" height="178" viewBox="0 0 178 178" fill="none" xmlns="http://www.w3.org/2000/svg">
<g filter="url(#filter0_d_2_488)">
<rect x="30" y="30" width="118" height="118" rx="10" fill="white"/>
<path d="M89 59.5C72.7271 59.5 59.5 72.7271 59.5 89C59.5 105.273 72.7271 118.5 89 118.5C91.9021 118.5 94.6787 118.083 97.3338 117.294C95.9067 115.672 94.3579 113.655 92.9567 111.394C92.4663 111.936 91.9721 112.379 91.4559 112.722V108.64C90.0067 105.667 89 102.375 89 98.9821C89 94.0888 91.0171 89.6416 94.2842 86.4925H91.4559V79.7333C93.7901 79.6338 96.0763 79.4383 98.2409 79.0696C98.5101 80.4229 98.7092 81.8463 98.8567 83.3213C100.358 82.5837 101.954 82.0675 103.65 81.8463C103.503 80.5446 103.307 79.2908 103.06 78.0592C105.468 77.4212 107.681 76.6321 109.65 75.6992C111.077 77.9117 112.157 80.3713 112.821 82.9746C114.934 83.8338 116.804 85.1392 118.4 86.7359C117.272 71.5212 104.513 59.5 89 59.5ZM79.0179 66.5542C77.8859 68.4717 76.905 70.7579 76.1159 73.2912C74.4676 72.8746 72.9188 72.3583 71.5176 71.7425C73.66 69.5779 76.1933 67.8079 79.0179 66.5542ZM68.35 75.6992C70.3154 76.6321 72.5279 77.4212 74.9396 78.0592C74.4233 80.6884 74.1025 83.5167 73.9808 86.4925H64.5408C64.9317 82.5579 66.3108 78.8962 68.35 75.6992ZM64.5408 91.4079H73.9808C74.1025 94.4317 74.4233 97.2821 74.9396 99.9371C72.5316 100.575 70.3191 101.364 68.35 102.297C66.285 99.1038 64.9317 95.3904 64.5408 91.4079ZM71.5213 106.257C72.9225 105.642 74.4712 105.125 76.1196 104.709C76.905 107.242 77.8896 109.528 79.0216 111.446C76.1933 110.192 73.66 108.422 71.5213 106.257ZM86.5404 112.722C84.4275 111.295 82.4104 108.149 80.9834 103.698C82.7792 103.429 84.6229 103.256 86.5404 103.182V112.722ZM86.5404 98.2667C84.2063 98.3663 81.92 98.5617 79.7554 98.9304C79.3129 96.6184 79.0179 94.1109 78.8963 91.4079H86.5404V98.2667ZM86.5404 86.4925H78.8963C79.0179 83.8375 79.3129 81.3558 79.7554 79.0696C81.92 79.4383 84.2063 79.6338 86.5404 79.7333V86.4925ZM86.5404 74.8142C84.6229 74.7404 82.7792 74.5671 80.9834 74.2979C82.4104 69.8471 84.4238 66.7017 86.5404 65.2746V74.8142ZM91.4596 74.8142V65.2783C93.5725 66.7054 95.5896 69.8508 97.0166 74.3016C95.2208 74.5708 93.3771 74.7404 91.4596 74.8142ZM101.88 73.2912C101.095 70.7579 100.11 68.4717 98.9784 66.5542C101.807 67.8079 104.336 69.5779 106.475 71.7425C105.077 72.3583 103.529 72.8746 101.88 73.2912Z" fill="#1BB7B5"/>
<path opacity="0.4" d="M106.21 86.5404C99.4322 86.5404 93.9193 92.1233 93.9193 98.9857C93.9193 108.455 104.558 117.667 105.011 118.057C105.354 118.352 105.782 118.5 106.21 118.5C106.638 118.5 107.065 118.352 107.408 118.057C107.862 117.67 118.5 108.459 118.5 98.9857C118.5 92.1233 112.987 86.5404 106.21 86.5404ZM106.21 103.75C103.499 103.75 101.294 101.545 101.294 98.8345C101.294 96.1242 103.499 93.9191 106.21 93.9191C108.92 93.9191 111.125 96.1242 111.125 98.8345C111.125 101.545 108.92 103.75 106.21 103.75Z" fill="#1BB7B5"/>
</g>
<defs>
<filter id="filter0_d_2_488" x="0" y="0" width="178" height="178" filterUnits="userSpaceOnUse" color-interpolation-filters="sRGB">
<feFlood flood-opacity="0" result="BackgroundImageFix"/>
<feColorMatrix in="SourceAlpha" type="matrix" values="0 0 0 0 0 0 0 0 0 0 0 0 0 0 0 0 0 0 127 0" result="hardAlpha"/>
<feOffset/>
<feGaussianBlur stdDeviation="15"/>
<feColorMatrix type="matrix" values="0 0 0 0 0.560784 0 0 0 0 0.560784 0 0 0 0 0.560784 0 0 0 0.2 0"/>
<feBlend mode="normal" in2="BackgroundImageFix" result="effect1_dropShadow_2_488"/>
<feBlend mode="normal" in="SourceGraphic" in2="effect1_dropShadow_2_488" result="shape"/>
</filter>
</defs>
</svg>
