<svg width="56" height="56" viewBox="0 0 56 56" fill="none" xmlns="http://www.w3.org/2000/svg">
<path d="M49.4664 26.2033V25.2C49.4664 22.4771 48.3847 19.8657 46.4594 17.9404C44.534 16.015 41.9226 14.9333 39.1998 14.9333C36.4769 14.9333 33.8656 16.015 31.9402 17.9404C30.0148 19.8657 28.9332 22.4771 28.9332 25.2V28.9333H25.1999C24.9523 28.9333 24.715 29.0317 24.5399 29.2067C24.3649 29.3817 24.2666 29.6191 24.2666 29.8667V33.6C24.2666 33.8475 24.3649 34.0849 24.5399 34.26C24.715 34.435 24.9523 34.5333 25.1999 34.5333H25.2932L26.1771 42.9333H22.3999V2.8C22.3999 2.05739 22.1049 1.3452 21.5798 0.820101C21.0547 0.294999 20.3425 0 19.5999 0C18.8573 0 18.1451 0.294999 17.62 0.820101C17.0949 1.3452 16.7999 2.05739 16.7999 2.8V42.9333H7.46668C6.97179 42.9339 6.49734 43.1308 6.1474 43.4807C5.79747 43.8307 5.60061 44.3051 5.60003 44.8V47.4851L3.76126 54.8403C3.72686 54.9779 3.72428 55.1216 3.75371 55.2603C3.78313 55.3991 3.84379 55.5293 3.93107 55.6411C4.01836 55.7528 4.12997 55.8433 4.25744 55.9055C4.38491 55.9677 4.52487 56 4.6667 56H48.533C48.7806 56 49.018 55.9017 49.193 55.7266C49.368 55.5516 49.4664 55.3142 49.4664 55.0667V51.3823L50.7838 38.8673C51.235 38.6198 51.611 38.2549 51.872 37.8114C52.1329 37.3678 52.2692 36.8619 52.2663 36.3473V29.6333C52.2654 28.8268 51.9864 28.0452 51.4764 27.4204C50.9663 26.7956 50.2564 26.3657 49.4664 26.2033ZM30.7998 25.2C30.7998 24.0969 31.0171 23.0046 31.4392 21.9855C31.8614 20.9663 32.4801 20.0403 33.2601 19.2603C34.0401 18.4803 34.9661 17.8616 35.9853 17.4394C37.0044 17.0173 38.0967 16.8 39.1998 16.8C40.3029 16.8 41.3952 17.0173 42.4143 17.4394C43.4334 17.8616 44.3594 18.4803 45.1394 19.2603C45.9194 20.0403 46.5382 20.9663 46.9603 21.9855C47.3824 23.0046 47.5997 24.0969 47.5997 25.2V26.1333H38.9664C38.1599 26.1343 37.3783 26.4133 36.7535 26.9233C36.1287 27.4334 35.6989 28.1433 35.5365 28.9333H30.7998V25.2ZM26.1332 30.8H35.4665V32.6667H26.1332V30.8ZM27.1699 34.5333H35.4665V36.3487C35.4681 36.7296 35.5449 37.1065 35.6926 37.4576C35.8403 37.8088 36.0559 38.1273 36.327 38.3949C36.587 38.6546 36.8963 38.8596 37.2368 38.9978C37.5773 39.1361 37.942 39.2048 38.3094 39.1999C38.9833 39.1879 39.6305 38.9342 40.1331 38.4852C40.646 38.9454 41.3107 39.1999 41.9998 39.1999C42.6888 39.1999 43.3536 38.9454 43.8664 38.4852C44.3791 38.9452 45.0436 39.1997 45.7324 39.1999C46.4212 39.2 47.0859 38.9459 47.5988 38.4861C47.9608 38.8115 48.4021 39.0358 48.8784 39.1364L47.693 50.4H34.3285L33.5998 47.4851V44.8C33.5992 44.3051 33.4024 43.8307 33.0524 43.4807C32.7025 43.1308 32.2281 42.9339 31.7332 42.9333H28.0538L27.1699 34.5333ZM18.6666 2.8C18.6666 2.55246 18.7649 2.31507 18.94 2.14003C19.115 1.965 19.3524 1.86667 19.5999 1.86667C19.8475 1.86667 20.0849 1.965 20.2599 2.14003C20.4349 2.31507 20.5332 2.55246 20.5332 2.8V42.9333H18.6666V2.8ZM7.46668 44.8H31.7332V46.6667H7.46668V44.8ZM9.59536 54.1333L10.9954 48.5333H12.8046L11.4046 54.1333H9.59536ZM7.26205 48.5333H9.0713L7.67131 54.1333H5.86206L7.26205 48.5333ZM14.7287 48.5333H16.676L15.9761 54.1333H13.3287L14.7287 48.5333ZM17.8572 54.1333L18.5572 48.5333H20.6427L21.3427 54.1333H17.8572ZM23.2238 54.1333L22.5238 48.5333H24.4712L25.8712 54.1333H23.2238ZM27.7952 54.1333L26.3952 48.5333H28.2045L29.6045 54.1333H27.7952ZM31.5285 54.1333L30.1285 48.5333H31.9378L33.3378 54.1333H31.5285ZM47.5997 54.1333H35.2618L34.7952 52.2667H47.5997V54.1333ZM50.3997 33.6V36.3473C50.404 36.5932 50.3149 36.8316 50.1504 37.0144C49.9858 37.1972 49.758 37.3107 49.513 37.3322C49.3867 37.3385 49.2604 37.3191 49.1418 37.2751C49.0232 37.2311 48.9148 37.1634 48.8231 37.0763C48.7315 36.9891 48.6585 36.8842 48.6086 36.7679C48.5588 36.6517 48.533 36.5265 48.533 36.4V32.6667H46.6664V36.4C46.6664 36.6475 46.5681 36.8849 46.393 37.06C46.218 37.235 45.9806 37.3333 45.7331 37.3333C45.4855 37.3333 45.2481 37.235 45.0731 37.06C44.8981 36.8849 44.7997 36.6475 44.7997 36.4V32.6667H42.9331V36.4C42.9331 36.6475 42.8348 36.8849 42.6597 37.06C42.4847 37.235 42.2473 37.3333 41.9998 37.3333C41.7522 37.3333 41.5148 37.235 41.3398 37.06C41.1648 36.8849 41.0664 36.6475 41.0664 36.4V32.6667H39.1998V36.4C39.2001 36.6451 39.1038 36.8804 38.9319 37.0551C38.76 37.2298 38.5262 37.3297 38.2812 37.3333H38.2683C38.0306 37.3309 37.8036 37.2345 37.6369 37.065C37.5417 36.9715 37.4659 36.8601 37.4138 36.7371C37.3618 36.6142 37.3345 36.4823 37.3336 36.3488V29.6333C37.3341 29.2003 37.5063 28.7851 37.8125 28.4789C38.1187 28.1727 38.5339 28.0005 38.9669 28H48.7668C49.1999 28.0005 49.6151 28.1727 49.9213 28.4789C50.2275 28.7851 50.3997 29.2003 50.4002 29.6333L50.3997 33.6Z" fill="#1BB7B5"/>
<path d="M45.7329 43.8667H43.8662V48.5333H45.7329V43.8667Z" fill="#1BB7B5"/>
<path d="M45.7329 40.1333H43.8662V42H45.7329V40.1333Z" fill="#1BB7B5"/>
<path d="M9.38107 30.1618C9.44304 30.3476 9.56189 30.5092 9.72079 30.6237C9.87969 30.7383 10.0706 30.7999 10.2664 30.7999C10.4623 30.7999 10.6532 30.7383 10.8121 30.6237C10.971 30.5092 11.0899 30.3476 11.1518 30.1618C11.3974 29.4308 11.809 28.7666 12.3544 28.2213C12.8997 27.676 13.5639 27.2644 14.2949 27.0189C14.4808 26.9569 14.6425 26.8381 14.7571 26.6792C14.8716 26.5202 14.9333 26.3293 14.9333 26.1334C14.9333 25.9374 14.8716 25.7465 14.7571 25.5875C14.6425 25.4286 14.4808 25.3098 14.2949 25.2479C13.5639 25.0023 12.8997 24.5907 12.3544 24.0454C11.809 23.5001 11.3974 22.8359 11.1518 22.1049C11.0899 21.9191 10.971 21.7575 10.8121 21.643C10.6532 21.5284 10.4623 21.4668 10.2664 21.4668C10.0706 21.4668 9.87969 21.5284 9.72079 21.643C9.56189 21.7575 9.44304 21.9191 9.38107 22.1049C9.13545 22.8359 8.72385 23.5001 8.17853 24.0454C7.63322 24.5907 6.96901 25.0023 6.23798 25.2479C6.0521 25.3098 5.89041 25.4286 5.77584 25.5875C5.66126 25.7465 5.59961 25.9374 5.59961 26.1334C5.59961 26.3293 5.66126 26.5202 5.77584 26.6792C5.89041 26.8381 6.0521 26.9569 6.23798 27.0189C6.96901 27.2644 7.63322 27.676 8.17853 28.2213C8.72385 28.7666 9.13545 29.4308 9.38107 30.1618ZM10.2664 24.4495C10.726 25.104 11.2957 25.6738 11.9502 26.1334C11.2957 26.5929 10.726 27.1627 10.2664 27.8172C9.80692 27.1627 9.23721 26.5929 8.58273 26.1334C9.23721 25.6738 9.80692 25.104 10.2664 24.4495Z" fill="#1BB7B5"/>
<path d="M55.3613 14.0476C54.6303 13.802 53.9661 13.3905 53.4208 12.8452C52.8754 12.2999 52.4638 11.6357 52.2182 10.9046C52.1563 10.7188 52.0374 10.5572 51.8785 10.4427C51.7196 10.3282 51.5287 10.2666 51.3328 10.2666C51.137 10.2666 50.9461 10.3282 50.7872 10.4427C50.6283 10.5572 50.5094 10.7188 50.4475 10.9046C50.2019 11.6357 49.7903 12.2999 49.2449 12.8452C48.6996 13.3905 48.0354 13.802 47.3044 14.0476C47.1185 14.1095 46.9568 14.2284 46.8422 14.3873C46.7277 14.5462 46.666 14.7372 46.666 14.9331C46.666 15.129 46.7277 15.32 46.8422 15.4789C46.9568 15.6379 47.1185 15.7567 47.3044 15.8186C48.0354 16.0642 48.6996 16.4758 49.2449 17.0211C49.7903 17.5664 50.2019 18.2306 50.4475 18.9616C50.5094 19.1474 50.6283 19.309 50.7872 19.4235C50.9461 19.538 51.137 19.5996 51.3328 19.5996C51.5287 19.5996 51.7196 19.538 51.8785 19.4235C52.0374 19.309 52.1563 19.1474 52.2182 18.9616C52.4638 18.2306 52.8754 17.5664 53.4208 17.0211C53.9661 16.4758 54.6303 16.0642 55.3613 15.8186C55.5472 15.7567 55.7089 15.6379 55.8235 15.4789C55.938 15.32 55.9997 15.129 55.9997 14.9331C55.9997 14.7372 55.938 14.5462 55.8235 14.3873C55.7089 14.2284 55.5472 14.1095 55.3613 14.0476ZM51.3328 16.617C50.8733 15.9625 50.3036 15.3927 49.6491 14.9331C50.3036 14.4735 50.8733 13.9038 51.3328 13.2493C51.7924 13.9038 52.3621 14.4735 53.0166 14.9331C52.3621 15.3927 51.7924 15.9625 51.3328 16.617Z" fill="#1BB7B5"/>
<path d="M4.66684 42.0002C4.86272 42.0002 5.05363 41.9385 5.21253 41.824C5.37143 41.7095 5.49027 41.5478 5.55222 41.362C5.79783 40.631 6.20944 39.9668 6.75475 39.4215C7.30007 38.8762 7.96428 38.4646 8.69531 38.219C8.88119 38.1571 9.04287 38.0383 9.15745 37.8793C9.27202 37.7204 9.33368 37.5294 9.33368 37.3335C9.33368 37.1376 9.27202 36.9466 9.15745 36.7877C9.04287 36.6288 8.88119 36.5099 8.69531 36.448C7.96428 36.2024 7.30007 35.7908 6.75475 35.2455C6.20944 34.7002 5.79783 34.036 5.55222 33.305C5.49025 33.1192 5.3714 32.9576 5.2125 32.8431C5.0536 32.7286 4.8627 32.667 4.66684 32.667C4.47098 32.667 4.28008 32.7286 4.12118 32.8431C3.96228 32.9576 3.84343 33.1192 3.78146 33.305C3.53584 34.036 3.12424 34.7002 2.57893 35.2455C2.03361 35.7908 1.3694 36.2024 0.63837 36.448C0.452488 36.5099 0.290805 36.6288 0.17623 36.7877C0.0616557 36.9466 0 37.1376 0 37.3335C0 37.5294 0.0616557 37.7204 0.17623 37.8793C0.290805 38.0383 0.452488 38.1571 0.63837 38.219C1.3694 38.4646 2.03361 38.8762 2.57893 39.4215C3.12424 39.9668 3.53584 40.631 3.78146 41.362C3.84341 41.5478 3.96225 41.7095 4.12115 41.824C4.28005 41.9385 4.47096 42.0002 4.66684 42.0002ZM4.66684 35.6497C5.12637 36.3042 5.69607 36.8739 6.35056 37.3335C5.69607 37.7931 5.12637 38.3628 4.66684 39.0174C4.20731 38.3628 3.6376 37.7931 2.98312 37.3335C3.6376 36.8739 4.20731 36.3042 4.66684 35.6497Z" fill="#1BB7B5"/>
</svg>
