<svg width="60" height="60" viewBox="0 0 60 60" fill="none" xmlns="http://www.w3.org/2000/svg">
<path d="M11.8125 60H0V0H19.7656C19.7391 0.0265625 19.7156 0.0671884 19.6844 0.0765634C18.4906 0.432813 17.725 1.20156 17.5484 2.44688C17.3609 3.775 17.9625 4.72969 19.0641 5.4375C20.3422 6.25938 21.6 7.1125 22.8516 7.975C23.0312 8.09687 23.1266 8.34062 23.2609 8.52813C23.0577 8.60944 22.8451 8.66508 22.6281 8.69375C20.0375 8.70469 17.4453 8.66875 14.8547 8.725C14.1965 8.7421 13.5526 8.92078 12.9797 9.24531C11.8859 9.8875 11.4578 11.2531 11.8297 12.4719C12.017 13.0729 12.3938 13.5972 12.9039 13.9662C13.414 14.3352 14.0299 14.529 14.6594 14.5188C17.6016 14.5297 20.5437 14.5188 23.4859 14.5188C23.6422 14.5067 23.7994 14.5114 23.9547 14.5328C24.0069 14.5429 24.0562 14.5643 24.0992 14.5957C24.1421 14.627 24.1776 14.6674 24.2031 14.7141C24.2054 14.7681 24.1958 14.822 24.175 14.8719C24.1542 14.9219 24.1228 14.9667 24.0828 15.0031C23.9597 15.0984 23.8266 15.1802 23.6859 15.2469C22.0984 16.1578 20.5016 17.0531 18.9234 17.9812C18.3809 18.2841 17.9556 18.76 17.7154 19.333C17.4752 19.906 17.434 20.543 17.5984 21.1422C17.9422 22.4031 19.0375 23.2156 20.3781 23.2125C21.2399 23.2056 22.0831 22.9618 22.8156 22.5078C24.0854 21.7484 25.3542 20.9865 26.6219 20.2219L31.5172 17.2781C31.1781 16.7156 30.8641 16.1844 30.5313 15.6359C30.2938 15.7703 30.1078 15.8688 29.9281 15.9781C27.3063 17.5531 24.6953 19.1438 22.0578 20.6906C21.5478 20.9649 20.9987 21.1594 20.4297 21.2672C19.9906 21.3641 19.6312 21.1234 19.4812 20.6703C19.3312 20.2172 19.5203 19.9094 19.8766 19.6688C20.0531 19.5484 20.2437 19.4484 20.4297 19.3422C21.9828 18.45 23.5438 17.5672 25.0891 16.6625C25.4559 16.4686 25.7562 16.1692 25.9512 15.803C26.1461 15.4367 26.2268 15.0204 26.1828 14.6078C26.1172 13.7422 25.6703 13.0859 24.8531 12.7703C24.4688 12.6351 24.0637 12.5685 23.6562 12.5734C20.7922 12.5578 17.9266 12.5656 15.0625 12.5641C14.8681 12.5732 14.6732 12.5675 14.4797 12.5469C14.2522 12.5304 14.0398 12.4266 13.8872 12.2571C13.7346 12.0875 13.6535 11.8655 13.6609 11.6375C13.6447 11.401 13.7207 11.1674 13.8731 10.9859C14.0255 10.8044 14.2424 10.689 14.4781 10.6641C14.6527 10.6489 14.828 10.6448 15.0031 10.6516C17.6344 10.6516 20.2641 10.6516 22.8953 10.6516C23.9984 10.6516 24.8328 10.0516 25.125 9.08906C25.4375 8.08125 25.0844 7.14688 24.1531 6.49531C24.0094 6.39531 23.8625 6.30156 23.7156 6.20312L19.9266 3.66875C19.5516 3.41719 19.35 3.07969 19.475 2.62344C19.6078 2.14375 19.9656 1.88437 20.4391 1.95312C20.8329 1.9981 21.2091 2.14158 21.5328 2.37031C23.8125 4.20156 26.0641 6.06719 28.3266 7.92187C29.3344 8.74844 30.3437 9.57188 31.375 10.4219L32.5844 8.94219C32.4281 8.80312 32.3313 8.71094 32.2281 8.62969C29.6188 6.49219 27.0172 4.34531 24.3969 2.22344C23.4078 1.42187 22.5219 0.460938 21.2828 0.00781298H60V30.2344C59.975 30.2047 59.9359 30.1781 59.9297 30.1453C59.4609 27.9984 58.1125 26.7266 56.0234 26.1859C55.0859 25.9453 54.1703 25.6547 53.2391 25.3844C53.2391 24.3625 53.2266 23.4062 53.2391 22.4516C53.2594 21.2016 52.7312 20.2797 51.6391 19.6734C51.5078 19.6 51.3406 19.4375 51.3391 19.3125C51.3172 18.0516 51.325 16.7906 51.325 15.475H55.1406C55.1406 14.3141 55.2344 13.1969 55.1219 12.1031C54.8563 9.52187 52.8469 7.75938 50.2563 7.74219C48.0547 7.72813 45.8531 7.73438 43.65 7.74219C42.2172 7.74219 40.8156 8.03594 39.6734 8.89531C39.2629 9.21405 38.7934 9.44853 38.292 9.58529C37.7906 9.72204 37.2671 9.75837 36.7516 9.69219C36.5 9.66875 36.2453 9.69219 35.9922 9.69219H33.0109V15.5094H35.4516C34.6859 18.3594 32.8609 19.9781 30.0937 20.5375C29.8562 23.5266 31.8125 25.4594 34.6875 25.1047C37.2687 24.7844 39.0625 23.3781 40.0906 21.0047C40.8063 19.3391 41.4359 17.6391 42.1219 15.9609C42.1969 15.7766 42.3906 15.5125 42.5391 15.5062C43.5062 15.4641 44.475 15.4844 45.5078 15.4844C45.5078 16.8078 45.5172 18.0719 45.4937 19.3359C45.4937 19.4547 45.3141 19.6078 45.1812 19.6828C44.1156 20.2812 43.5781 21.1781 43.5922 22.4078C43.6016 23.2469 43.5781 24.0875 43.5922 24.9266C43.6016 25.2953 43.5094 25.4797 43.1234 25.5703C42.2531 25.7719 41.3969 26.0391 40.5328 26.2734C39.2141 26.6359 38.1719 27.3812 37.5047 28.5828C37.3031 28.9469 37.0828 29.0516 36.6859 29.0516C31.9516 29.0391 27.2161 29.0391 22.4797 29.0516C18.775 29.0625 16.0937 30.7703 14.4078 34.0516C13.6969 35.4391 13.0016 36.8344 12.3266 38.2406C12.1578 38.5922 11.9656 38.7203 11.575 38.7094C10.0562 38.6865 8.53646 38.6865 7.01562 38.7094C3.03594 38.7594 0.140626 41.6891 0.123439 45.6672C0.115626 47.5609 0.0968744 49.4547 0.131249 51.3484C0.164062 53.1188 0.970314 54.4734 2.4625 55.4313C3.55625 56.1281 4.775 56.1875 6.0125 56.1312C6.1811 56.1054 6.3535 56.1364 6.50257 56.2192C6.65164 56.3021 6.76892 56.4322 6.83594 56.5891C7.61866 58.0063 8.89911 59.083 10.4297 59.6109C10.8719 59.7703 11.3469 59.8703 11.8125 60Z" fill="white"/>
<path d="M11.8128 60C11.344 59.8703 10.8752 59.7703 10.419 59.6062C8.88843 59.0783 7.60797 58.0016 6.82525 56.5843C6.75823 56.4275 6.64096 56.2974 6.49188 56.2145C6.34281 56.1316 6.17041 56.1007 6.00181 56.1265C4.76431 56.1828 3.544 56.1265 2.45181 55.4265C0.959627 54.475 0.153375 53.114 0.120562 51.3437C0.0861873 49.45 0.104939 47.5562 0.112752 45.6625C0.126814 41.6843 3.02525 38.7546 7.00494 38.7046C8.52369 38.6859 10.0435 38.6859 11.5643 38.7046C11.9549 38.7046 12.1471 38.5828 12.3159 38.2359C12.9878 36.8296 13.6862 35.4343 14.3971 34.0468C16.0831 30.7578 18.7643 29.0468 22.469 29.0468C27.2044 29.0333 31.9398 29.0333 36.6752 29.0468C37.0721 29.0468 37.3003 28.939 37.494 28.5781C38.1612 27.3765 39.2034 26.6312 40.5221 26.2687C41.3862 26.0312 42.2409 25.7671 43.1127 25.5656C43.5065 25.475 43.5987 25.2906 43.5815 24.9218C43.5596 24.0828 43.5815 23.2421 43.5815 22.4031C43.5674 21.1734 44.1049 20.2765 45.1706 19.6781C45.3034 19.6031 45.4831 19.45 45.4831 19.3312C45.5065 18.0671 45.4971 16.8031 45.4971 15.4796C44.4706 15.4796 43.5018 15.4593 42.5284 15.5015C42.3721 15.5015 42.1862 15.7718 42.1112 15.9562C41.4237 17.6343 40.794 19.3343 40.0799 21C39.0596 23.3734 37.2581 24.7796 34.6768 25.1C31.8003 25.4546 29.8456 23.5218 30.0831 20.5328C32.8503 19.9734 34.6753 18.3546 35.4409 15.5046H33.0112V9.68746H35.9924C36.2456 9.68746 36.5003 9.66715 36.7518 9.68746C37.2673 9.75364 37.7908 9.71731 38.2923 9.58056C38.7937 9.4438 39.2632 9.20932 39.6737 8.89058C40.8159 8.03121 42.2174 7.74215 43.6502 7.73746C45.8534 7.73746 48.0549 7.72496 50.2565 7.73746C52.8471 7.75465 54.8565 9.51714 55.1221 12.0984C55.2346 13.1921 55.1409 14.3093 55.1409 15.4703H51.319C51.319 16.7859 51.3112 18.0468 51.3331 19.3078C51.3331 19.4328 51.5018 19.5953 51.6331 19.6687C52.7268 20.275 53.2534 21.1937 53.2331 22.4468C53.219 23.4015 53.2331 24.3578 53.2331 25.3796C54.1706 25.65 55.0846 25.9406 56.0174 26.1812C58.1143 26.7218 59.4549 27.9937 59.9237 30.1406C59.9237 30.1734 59.969 30.2 59.994 30.2296V55.8984C59.9503 56.0234 59.9003 56.1453 59.8659 56.2718C59.4143 57.9437 58.3924 59.1015 56.7721 59.7171C56.4862 59.825 56.1909 59.9062 55.9003 60H40.9378C40.5346 59.8656 40.1174 59.7625 39.7315 59.5906C38.2299 58.9187 37.3159 57.7437 36.9081 56.1531C36.7878 56.1531 36.6909 56.1343 36.5956 56.1343C30.7924 56.1343 24.9888 56.1312 19.1846 56.125C18.8596 56.125 18.7159 56.2453 18.5596 56.514C17.7173 58.0549 16.3023 59.2022 14.6206 59.7078C14.2721 59.8171 13.9159 59.9031 13.5643 60H11.8128ZM58.0627 43.1031V34.489C58.0627 33.3375 58.0752 32.1843 58.0627 31.0328C58.0409 29.7609 57.4862 28.7296 56.2799 28.3359C54.3315 27.6984 52.4034 26.9421 50.269 27.0656C48.5987 27.1625 46.9174 27.0781 45.2409 27.0906C44.9113 27.0925 44.5832 27.1355 44.2643 27.2187C43.194 27.5078 42.1299 27.8234 41.0659 28.1296C39.5518 28.5671 38.7471 29.6031 38.7456 31.1718C38.7456 39.102 38.7456 47.0312 38.7456 54.9593C38.7456 56.8343 39.9471 58.05 41.8127 58.0546C46.2174 58.0656 50.6237 58.0812 55.0284 58.0328C55.6827 58.0052 56.3188 57.8093 56.8753 57.464C57.7956 56.8984 58.0721 55.9406 58.069 54.8796C58.0596 50.9531 58.0674 47.0312 58.0674 43.1031H58.0627ZM36.7956 30.9593H36.1987C31.6377 30.9593 27.0768 30.9484 22.5143 30.9593C19.5924 30.9687 17.4503 32.2796 16.1331 34.9078C15.2409 36.6859 14.3471 38.4625 13.4768 40.25C13.4276 40.3831 13.3351 40.4959 13.2141 40.5702C13.0931 40.6444 12.9506 40.6758 12.8096 40.6593C10.8206 40.6437 8.83306 40.6468 6.844 40.6593C5.50962 40.6593 4.38619 41.1828 3.44713 42.1187C3.3427 42.2387 3.24714 42.3661 3.16119 42.5C3.77369 42.5796 4.32994 42.5843 4.84712 42.7312C5.48795 42.9258 6.04061 43.3382 6.40953 43.8972C6.77845 44.4561 6.94042 45.1264 6.86744 45.7921C6.79156 46.4882 6.46734 47.1336 5.95421 47.61C5.44109 48.0864 4.77345 48.3618 4.07369 48.3859C3.41744 48.4125 2.75963 48.3859 2.094 48.3859V50.3125C3.45494 50.3125 4.77525 50.3 6.09557 50.3125C6.4565 50.3125 6.6315 50.1828 6.819 49.8797C8.33619 47.4062 10.5409 46.2312 13.4456 46.5125C14.1502 46.5812 14.8378 46.825 15.5674 46.9937C15.5674 45.8343 15.5674 44.664 15.5674 43.4953C15.5674 42.1468 15.3456 40.7437 15.6503 39.4687C15.9549 38.1937 16.7971 37.0078 17.4018 35.7843C18.3612 33.8421 19.9018 32.8937 22.0893 32.9015C26.7674 32.9203 31.4456 32.9015 36.1237 32.9015H36.8049L36.7956 30.9593ZM17.5112 40.6875V41.3593C17.5112 43.2718 17.5362 45.1859 17.5003 47.0984C17.4846 47.9578 17.5128 48.7609 18.2174 49.3812C18.3591 49.5188 18.4662 49.688 18.5299 49.875C18.669 50.2515 18.9299 50.3218 19.3018 50.3203C22.3612 50.3062 25.4206 50.3203 28.4799 50.3109C28.6674 50.3109 28.8565 50.2921 29.0737 50.2812V40.6875H17.5112ZM32.1549 21.9578C32.4909 22.7718 33.0674 23.1843 33.8643 23.2078C35.8065 23.2781 37.569 22.0921 38.3534 20.1578C39.1503 18.189 39.9518 16.2203 40.6971 14.2328C40.9049 13.6796 41.1831 13.5312 41.7549 13.5359C45.3393 13.564 48.9253 13.55 52.5112 13.55H53.2268C53.2268 13.1703 53.2268 12.8796 53.2268 12.589C53.194 10.925 52.0081 9.70777 50.3393 9.69058C48.0596 9.66715 45.7799 9.65621 43.5003 9.69058C41.0346 9.73121 39.0049 11.2187 38.1612 13.5421C37.8628 14.3656 37.569 15.1937 37.3299 16.0421C36.5409 18.8265 34.9018 20.8515 32.1549 21.9578ZM18.0924 38.6765H36.7846V34.8765C36.7158 34.8552 36.6452 34.84 36.5737 34.8312C31.6643 34.8312 26.7539 34.8312 21.8424 34.8312C20.9221 34.8312 20.0815 35.1625 19.5706 35.9468C19.0237 36.7906 18.6018 37.7125 18.0893 38.6687L18.0924 38.6765ZM36.7971 40.6906H31.0487V50.2734H36.7971V40.6906ZM12.669 58.0546C13.6238 58.0553 14.5573 57.7729 15.3516 57.2432C16.146 56.7135 16.7655 55.9602 17.1319 55.0786C17.4984 54.197 17.5953 53.2265 17.4104 52.2898C17.2255 51.3531 16.7672 50.4922 16.0933 49.8159C15.4194 49.1396 14.5601 48.6782 13.6241 48.49C12.6881 48.3018 11.7173 48.3953 10.8343 48.7586C9.9514 49.1219 9.19595 49.7387 8.66343 50.5312C8.13092 51.3236 7.84522 52.2561 7.84244 53.2109C7.84243 54.4926 8.35039 55.722 9.25506 56.6299C10.1597 57.5378 11.3873 58.0501 12.669 58.0546ZM19.4206 54.1484H36.7799V52.2921H19.4206V54.1484ZM45.5143 25.139H47.4096V21.3062C47.0581 21.3062 46.7471 21.2921 46.4393 21.3062C45.8893 21.3375 45.5503 21.664 45.5268 22.189C45.4831 23.1593 45.5143 24.1312 45.5143 25.1437V25.139ZM49.4206 21.3015V25.1609H51.2956C51.2956 24.1281 51.3315 23.1203 51.2799 22.1156C51.2534 21.6171 50.8893 21.325 50.369 21.3031C50.0581 21.2953 49.7487 21.3062 49.4143 21.3062L49.4206 21.3015ZM49.3346 19.3171V15.5125H47.5003V19.3218L49.3346 19.3171ZM5.93775 52.3109H2.32682C2.66432 53.6796 4.31744 54.4984 5.94244 54.0968L5.93775 52.3109ZM2.09713 46.4234C2.79713 46.4234 3.4565 46.4562 4.11119 46.414C4.59713 46.3812 4.87838 46.0531 4.91744 45.5625C4.95963 45.0437 4.7065 44.625 4.21275 44.5718C3.53306 44.489 2.83463 44.5515 2.09713 44.5515V46.4234ZM34.9096 11.6312V13.6265C35.3674 13.5343 35.9456 13.589 36.1346 13.3421C36.4956 12.8734 36.6362 12.2343 36.8815 11.6312H34.9096Z" fill="#1BB7B5"/>
<path d="M21.2865 0C22.5271 0.453125 23.4115 1.41406 24.4006 2.21562C27.0209 4.34062 29.6224 6.4875 32.2318 8.62187C32.3349 8.70781 32.4318 8.8 32.5881 8.93437L31.3787 10.4141C30.3474 9.57031 29.3381 8.74687 28.3302 7.91406C26.0693 6.05937 23.8162 4.19375 21.5365 2.3625C21.2127 2.13376 20.8366 1.99029 20.4427 1.94531C19.974 1.87656 19.6115 2.13594 19.4787 2.61563C19.3537 3.07188 19.5552 3.40937 19.9302 3.66094L23.7193 6.19531C23.8662 6.29375 24.0131 6.3875 24.1568 6.4875C25.0943 7.13906 25.4365 8.07344 25.1287 9.08125C24.8365 10.0375 24.0021 10.6344 22.899 10.6437C20.2677 10.6531 17.6381 10.6437 15.0068 10.6437C14.8317 10.6369 14.6564 10.6411 14.4818 10.6563C14.2461 10.6812 14.0292 10.7965 13.8768 10.9781C13.7244 11.1596 13.6483 11.3932 13.6646 11.6297C13.6572 11.8577 13.7382 12.0797 13.8909 12.2492C14.0435 12.4188 14.2558 12.5226 14.4834 12.5391C14.6769 12.5597 14.8718 12.5654 15.0662 12.5562C17.9302 12.5562 20.7959 12.5563 23.6599 12.5656C24.0673 12.5607 24.4724 12.6273 24.8568 12.7625C25.674 13.075 26.1209 13.7344 26.1865 14.6C26.2305 15.0126 26.1498 15.4289 25.9549 15.7951C25.7599 16.1614 25.4596 16.4608 25.0927 16.6547C23.5474 17.5594 21.9865 18.4422 20.4334 19.3344C20.2474 19.4406 20.0568 19.5406 19.8802 19.6609C19.524 19.9016 19.3427 20.2281 19.4849 20.6625C19.6271 21.0969 19.9943 21.3562 20.4334 21.2594C21.0024 21.1516 21.5515 20.9571 22.0615 20.6828C24.699 19.1359 27.3099 17.5453 29.9318 15.9703C30.1115 15.8609 30.2974 15.7625 30.5349 15.6281C30.8677 16.1812 31.1818 16.7078 31.5209 17.2703L26.6256 20.225C25.3568 20.9875 24.0881 21.7495 22.8193 22.5109C22.0868 22.9649 21.2436 23.2087 20.3818 23.2156C19.0412 23.2156 17.9459 22.4062 17.6021 21.1453C17.4377 20.5461 17.4789 19.9092 17.7191 19.3362C17.9593 18.7632 18.3846 18.2872 18.9271 17.9844C20.5052 17.0563 22.1021 16.1609 23.6896 15.25C23.8303 15.1833 23.9634 15.1016 24.0865 15.0063C24.1264 14.9698 24.1579 14.925 24.1787 14.8751C24.1995 14.8251 24.2091 14.7712 24.2068 14.7172C24.1813 14.6705 24.1458 14.6301 24.1029 14.5988C24.0599 14.5674 24.0106 14.546 23.9584 14.5359C23.8031 14.5145 23.6459 14.5098 23.4896 14.5219C20.5474 14.5219 17.6052 14.5297 14.6631 14.5219C14.0336 14.5321 13.4177 14.3383 12.9076 13.9693C12.3975 13.6003 12.0206 13.0761 11.8334 12.475C11.4615 11.2562 11.8834 9.89062 12.9834 9.24844C13.5563 8.9239 14.2002 8.74522 14.8584 8.72812C17.449 8.67188 20.0412 8.70781 22.6318 8.69688C22.8488 8.6682 23.0614 8.61257 23.2646 8.53125C23.1302 8.34375 23.0349 8.1 22.8552 7.97812C21.6052 7.11562 20.3459 6.25938 19.0677 5.44063C17.9662 4.73281 17.3646 3.77812 17.5521 2.45C17.7287 1.2 18.4896 0.435937 19.6881 0.0796866C19.7193 0.0703116 19.7427 0.0296882 19.7693 0.00312567L21.2865 0Z" fill="#1BB7B5"/>
<path d="M13.5664 60C13.918 59.9031 14.2742 59.8172 14.6227 59.7078C16.3044 59.2023 17.7194 58.0549 18.5617 56.5141C18.718 56.2453 18.857 56.1235 19.1867 56.125C24.9898 56.1354 30.7935 56.1386 36.5977 56.1344C36.693 56.1344 36.7898 56.1453 36.9102 56.1531C37.318 57.7438 38.232 58.9187 39.7336 59.5906C40.1195 59.7625 40.5367 59.8656 40.9398 60H13.5664Z" fill="white"/>
<path d="M55.9062 60C56.1968 59.9062 56.4921 59.825 56.7781 59.7172C58.3984 59.1016 59.4203 57.9438 59.8718 56.2719C59.9062 56.1453 59.9562 56.0234 59.9999 55.8984V60H55.9062Z" fill="white"/>
<path d="M58.0676 43.1032C58.0676 47.0282 58.0676 50.9532 58.0676 54.8798C58.0676 55.9407 57.7941 56.8985 56.8738 57.4641C56.3169 57.8097 55.6802 58.0055 55.0254 58.0329C50.6207 58.0813 46.2145 58.0657 41.8098 58.0548C39.9441 58.0548 38.7441 56.8407 38.7426 54.9595C38.7342 47.0313 38.7342 39.1022 38.7426 31.172C38.7426 29.6095 39.5488 28.5673 41.0629 28.1298C42.127 27.8173 43.191 27.5048 44.2613 27.2188C44.5803 27.1357 44.9083 27.0926 45.2379 27.0907C46.9145 27.0782 48.5957 27.1626 50.266 27.0657C52.4004 26.9423 54.3285 27.6907 56.277 28.336C57.4832 28.7298 58.0379 29.761 58.0598 31.0329C58.0785 32.1845 58.0598 33.3376 58.0598 34.4892L58.0676 43.1032ZM40.691 42.5798C40.691 46.3485 40.691 50.1168 40.691 53.8845C40.691 55.3813 41.4275 56.1303 42.9004 56.1313C46.5837 56.1313 50.2665 56.1313 53.9488 56.1313C55.3816 56.1313 56.1363 55.3626 56.1363 53.9157C56.1363 46.3595 56.1363 38.8037 56.1363 31.2485C56.1363 29.7923 55.3957 29.0438 53.9488 29.0423C50.2665 29.0423 46.5837 29.0423 42.9004 29.0423C41.4051 29.0423 40.691 29.7673 40.6894 31.2767C40.6894 35.0433 40.69 38.811 40.691 42.5798Z" fill="white"/>
<path d="M36.7949 30.9595V32.9157H36.1137C31.4355 32.9157 26.7574 32.9282 22.0793 32.9157C19.9059 32.9079 18.3574 33.8532 17.3918 35.7985C16.7871 37.022 15.9496 38.1892 15.6402 39.4829C15.3309 40.7767 15.5621 42.161 15.5574 43.5095C15.5574 44.6782 15.5574 45.8532 15.5574 47.0079C14.8277 46.8376 14.1402 46.5954 13.4355 46.5267C10.5309 46.2454 8.32617 47.4204 6.80898 49.8938C6.62148 50.197 6.44649 50.3329 6.08555 50.3267C4.76524 50.3063 3.44492 50.3267 2.08398 50.3267V48.3892C2.74961 48.3892 3.40742 48.411 4.06367 48.3892C4.76343 48.3651 5.43107 48.0896 5.9442 47.6132C6.45732 47.1368 6.78154 46.4915 6.85742 45.7954C6.93191 45.1297 6.77136 44.459 6.40358 43.8992C6.03579 43.3393 5.48389 42.9257 4.84336 42.7298C4.32617 42.5829 3.76992 42.5735 3.15742 42.4985C3.24337 42.3647 3.33893 42.2373 3.44336 42.1173C4.38086 41.1798 5.50586 40.6626 6.84023 40.6579C8.8293 40.6579 10.8168 40.647 12.8059 40.6579C12.9469 40.6744 13.0893 40.643 13.2103 40.5688C13.3314 40.4945 13.4239 40.3817 13.473 40.2485C14.3465 38.461 15.2402 36.6845 16.1293 34.9063C17.4465 32.2782 19.5887 30.9673 22.5105 30.9579C27.073 30.9438 31.634 30.9579 36.1949 30.9579L36.7949 30.9595Z" fill="white"/>
<path d="M17.5108 40.6875H29.0733V50.2812C28.8561 50.2922 28.667 50.3109 28.4795 50.3109C25.4201 50.3109 22.3608 50.3109 19.3014 50.3203C18.9295 50.3203 18.6686 50.2515 18.5295 49.875C18.4658 49.688 18.3587 49.5188 18.217 49.3812C17.5123 48.7562 17.4842 47.9578 17.4998 47.0984C17.5358 45.1859 17.5108 43.2718 17.5108 41.3593V40.6875ZM23.3295 42.6093V44.4843H27.1233V42.6093H23.3295Z" fill="white"/>
<path d="M32.1543 21.9578C34.9012 20.8515 36.5402 18.8328 37.3309 16.0468C37.5699 15.2031 37.8637 14.375 38.1621 13.5468C39.0059 11.2234 41.0355 9.73591 43.5012 9.69528C45.7809 9.65622 48.0605 9.66716 50.3402 9.69528C52.009 9.71247 53.1949 10.9297 53.2277 12.5937C53.2277 12.8843 53.2277 13.175 53.2277 13.5547H52.5121C48.9184 13.5547 45.3402 13.5687 41.7559 13.5406C41.184 13.5406 40.9059 13.6843 40.698 14.2375C39.9496 16.225 39.148 18.1937 38.3543 20.1625C37.573 22.0968 35.8074 23.2875 33.8652 23.2125C33.0668 23.1843 32.4902 22.7718 32.1543 21.9578Z" fill="white"/>
<path d="M18.0889 38.6688C18.6014 37.7125 19.0264 36.7938 19.5701 35.9516C20.0811 35.1703 20.9217 34.8375 21.842 34.8359C26.7535 34.8234 31.6639 34.8234 36.5732 34.8359C36.6448 34.8447 36.7154 34.8599 36.7842 34.8813V38.6734L18.0889 38.6688Z" fill="white"/>
<path d="M36.7973 40.6904V50.2732H31.0488V40.6904H36.7973Z" fill="white"/>
<path d="M12.6691 58.0549C11.7151 58.0521 10.7833 57.7668 9.9912 57.235C9.19912 56.7033 8.58227 55.9489 8.21847 55.0669C7.85466 54.185 7.7602 53.2151 7.94701 52.2795C8.13381 51.344 8.5935 50.4847 9.2681 49.8101C9.94269 49.1355 10.802 48.6758 11.7375 48.489C12.6731 48.3022 13.643 48.3967 14.5249 48.7605C15.4069 49.1243 16.1613 49.7411 16.6931 50.5332C17.2248 51.3253 17.5101 52.2571 17.5129 53.2111C17.5129 54.4957 17.0025 55.7278 16.0942 56.6362C15.1858 57.5445 13.9538 58.0549 12.6691 58.0549ZM15.5613 53.2111C15.5557 52.6412 15.3815 52.0856 15.0607 51.6145C14.7398 51.1435 14.2866 50.778 13.7582 50.5641C13.2299 50.3503 12.6501 50.2977 12.0919 50.413C11.5337 50.5282 11.0221 50.8062 10.6217 51.2118C10.2213 51.6175 9.94992 52.1326 9.84189 52.6923C9.73385 53.2519 9.79396 53.831 10.0146 54.3565C10.2353 54.8821 10.6066 55.3305 11.0818 55.6452C11.557 55.96 12.1148 56.127 12.6847 56.1252C13.4521 56.1202 14.1861 55.8108 14.7255 55.265C15.2648 54.7192 15.5655 53.9816 15.5613 53.2142V53.2111Z" fill="white"/>
<path d="M19.4199 54.1529V52.292H36.7793V54.1529H19.4199Z" fill="white"/>
<path d="M45.5147 25.1438C45.5147 24.1313 45.4835 23.1594 45.5272 22.1922C45.5507 21.6672 45.8897 21.3406 46.4397 21.3094C46.7522 21.2922 47.0647 21.3094 47.41 21.3094V25.1469L45.5147 25.1438Z" fill="white"/>
<path d="M49.4141 21.3061C49.7484 21.3061 50.0578 21.2952 50.3641 21.3061C50.8844 21.328 51.2484 21.6186 51.275 22.1186C51.3265 23.1233 51.2906 24.1311 51.2906 25.1639H49.4156L49.4141 21.3061Z" fill="white"/>
<path d="M49.3281 19.3221H47.5V15.5127H49.3281V19.3221Z" fill="white"/>
<path d="M5.93789 52.311V54.097C4.31289 54.5032 2.65664 53.6798 2.32227 52.311H5.93789Z" fill="white"/>
<path d="M2.10156 46.4235V44.5485C2.83906 44.5485 3.5375 44.486 4.21718 44.5688C4.71093 44.6282 4.96406 45.0376 4.92187 45.5594C4.88281 46.0501 4.60156 46.3782 4.11562 46.411C3.46094 46.4563 2.80156 46.4235 2.10156 46.4235Z" fill="white"/>
<path d="M34.9095 11.6313H36.8751C36.6298 12.2344 36.4892 12.8735 36.1282 13.3422C35.9392 13.5891 35.361 13.5344 34.9032 13.6266L34.9095 11.6313Z" fill="white"/>
<path d="M40.691 42.5795C40.691 38.8118 40.691 35.0441 40.691 31.2764C40.691 29.767 41.4066 29.0436 42.9019 29.042C46.5842 29.042 50.267 29.042 53.9503 29.042C55.3972 29.042 56.1378 29.792 56.1378 31.2482C56.1378 38.8045 56.1378 46.3602 56.1378 53.9154C56.1378 55.3623 55.3816 56.1295 53.9503 56.1311C50.268 56.1311 46.5852 56.1311 42.9019 56.1311C41.429 56.1311 40.6925 55.3821 40.6925 53.8842C40.6904 50.1175 40.6899 46.3493 40.691 42.5795ZM54.1675 31.0014H42.6566V54.1373H54.1737L54.1675 31.0014Z" fill="#1BB7B5"/>
<path d="M23.3301 42.6094H27.1238V44.4844H23.3301V42.6094Z" fill="#1BB7B5"/>
<path d="M15.5609 53.214C15.5597 53.7837 15.3898 54.3403 15.0728 54.8136C14.7558 55.287 14.3057 55.6559 13.7794 55.8739C13.253 56.0919 12.6739 56.1493 12.115 56.0387C11.5561 55.9282 11.0425 55.6547 10.6387 55.2527C10.235 54.8507 9.95931 54.3383 9.84636 53.7799C9.7334 53.2214 9.78825 52.6421 10.004 52.1148C10.2197 51.5875 10.5867 51.1359 11.0587 50.8168C11.5307 50.4977 12.0865 50.3255 12.6562 50.3218C13.037 50.3206 13.4142 50.3944 13.7664 50.5392C14.1185 50.6839 14.4387 50.8967 14.7085 51.1654C14.9783 51.434 15.1925 51.7533 15.3387 52.1048C15.485 52.4563 15.5605 52.8332 15.5609 53.214ZM13.6328 53.2265C13.6352 53.0363 13.5813 52.8496 13.4777 52.69C13.3741 52.5305 13.2256 52.4052 13.0509 52.33C12.8762 52.2548 12.6831 52.2331 12.496 52.2675C12.3089 52.302 12.1362 52.3911 11.9998 52.5237C11.8633 52.6562 11.7692 52.8262 11.7293 53.0122C11.6894 53.1982 11.7055 53.3918 11.7756 53.5687C11.8456 53.7455 11.9665 53.8976 12.123 54.0058C12.2795 54.114 12.4645 54.1734 12.6547 54.1765C12.7817 54.18 12.9082 54.1581 13.0266 54.112C13.1451 54.0658 13.253 53.9964 13.3442 53.9079C13.4354 53.8193 13.5079 53.7134 13.5575 53.5964C13.607 53.4793 13.6326 53.3536 13.6328 53.2265Z" fill="#1BB7B5"/>
<path d="M54.1672 31.0015V54.1375H42.6562V31.0015H54.1672ZM48.4156 44.5312H50.2906V42.5406H48.4156V40.6984H46.4406V42.5422H44.5953V44.5312H46.4344V46.4062H48.4156V44.5312ZM48.425 36.8015V38.6578H50.375C50.3281 37.9906 50.2844 37.3765 50.2406 36.764H52.2406V34.889H50.3813C50.3375 35.5531 50.2984 36.1687 50.2609 36.7875L48.4078 36.8234L48.3797 34.7719L50.2859 34.864V32.9484H48.3969V34.775L46.5219 34.8672V36.7937L48.425 36.8015ZM49.3734 50.2547C49.3609 49.6297 49.3479 49.0047 49.3344 48.3797L51.3937 48.3578C51.3625 49.0015 51.3313 49.6437 51.3 50.2719H53.1984V48.3703H51.3797L51.2719 46.4953H49.3516C49.3516 47.1625 49.3516 47.7812 49.3516 48.4H47.5V50.3609L49.3906 50.2281V52.2312H51.2656V50.3562C50.6062 50.3125 49.9906 50.2812 49.375 50.2469L49.3734 50.2547Z" fill="white"/>
<path d="M13.6321 53.2265C13.6338 53.3529 13.6105 53.4783 13.5636 53.5957C13.5168 53.7131 13.4473 53.8202 13.359 53.9107C13.2708 54.0012 13.1656 54.0735 13.0495 54.1234C12.9333 54.1733 12.8085 54.1998 12.6821 54.2015C12.5557 54.2031 12.4302 54.1798 12.3128 54.133C12.1954 54.0861 12.0884 54.0166 11.9979 53.9284C11.9073 53.8402 11.835 53.735 11.7852 53.6188C11.7353 53.5027 11.7088 53.3778 11.7071 53.2514C11.7038 52.9962 11.802 52.75 11.9802 52.5672C12.1583 52.3843 12.4018 52.2798 12.6571 52.2764C12.9124 52.2731 13.1585 52.3714 13.3414 52.5495C13.5242 52.7277 13.6288 52.9712 13.6321 53.2265Z" fill="white"/>
<path d="M50.2574 36.7733C50.2981 36.1483 50.3371 35.5405 50.3809 34.8765H52.2402V36.7515H50.2402L50.2574 36.7733Z" fill="#1BB7B5"/>
<path d="M49.3512 48.3938V46.4907H51.2715L51.3793 48.3657L51.3965 48.3485L49.334 48.372L49.3512 48.3938Z" fill="#1BB7B5"/>
<path d="M49.375 50.2438L51.2687 50.3594V52.2344H49.3937C49.3937 51.5469 49.3937 50.8891 49.3937 50.2328L49.375 50.2438Z" fill="#1BB7B5"/>
<path d="M48.3783 34.7579C48.3898 35.4422 48.3997 36.1266 48.408 36.811L48.4252 36.7938H46.5205V34.8672L48.3955 34.7751L48.3783 34.7579Z" fill="#1BB7B5"/>
<path d="M46.4402 42.542V40.6982H48.4121V42.5404L48.4293 42.5279H46.4199L46.4402 42.542Z" fill="#1BB7B5"/>
<path d="M46.4348 44.5314H44.5957V42.5424H46.441L46.4207 42.5283V44.5408L46.4348 44.5314Z" fill="#1BB7B5"/>
<path d="M48.4121 42.5408H50.2871V44.5314H48.4121L48.4262 44.5486V42.5283L48.4121 42.5408Z" fill="#1BB7B5"/>
<path d="M48.4156 44.5312V46.4062H46.4344V44.5312L46.4219 44.5484H48.4375L48.4156 44.5312Z" fill="#1BB7B5"/>
<path d="M48.3971 34.7748V32.9482H50.2861V34.8514L48.3799 34.7592L48.3971 34.7748Z" fill="#1BB7B5"/>
<path d="M50.241 36.7563C50.2848 37.3688 50.3285 37.9829 50.3754 38.6501H48.4254V36.7939L48.4082 36.811L50.2598 36.7751L50.241 36.7563Z" fill="#1BB7B5"/>
<path d="M49.3346 48.3766C49.3481 49.0016 49.3616 49.6266 49.3752 50.2516C49.3752 50.2516 49.3939 50.2328 49.3939 50.2312L47.5049 50.3625V48.3953H49.3517L49.3346 48.3766Z" fill="#1BB7B5"/>
<path d="M51.3795 48.3702H53.1982V50.2687H51.2998C51.3311 49.6436 51.3623 48.9983 51.3951 48.353C51.3903 48.3591 51.3851 48.3649 51.3795 48.3702Z" fill="#1BB7B5"/>
<path d="M48.4375 44.5408H46.4219C46.4219 43.87 46.4219 43.1992 46.4219 42.5283H48.4375V44.5408Z" fill="white"/>
</svg>
