<svg width="47" height="58" viewBox="0 0 47 58" fill="none" xmlns="http://www.w3.org/2000/svg">
<path fill-rule="evenodd" clip-rule="evenodd" d="M25.306 1.14555C22.9202 1.57809 21.3596 2.51864 20.6601 3.94556C20.1593 4.96719 19.9786 6.0706 19.9588 8.22641C19.9402 10.2526 20.0559 10.9872 20.5807 12.1722L20.811 12.6922L20.4195 13.0625C19.8271 13.623 19.527 14.3041 19.527 15.0877C19.527 15.9797 19.8166 16.5462 20.7918 17.5618C21.4639 18.2618 21.6807 18.4119 22.2631 18.5811C23.4565 18.9277 24.377 18.5994 25.7833 17.3256C26.5811 16.6028 26.6889 16.1726 26.202 15.6549C25.7167 15.1387 25.3429 15.2489 24.1412 16.2622C23.8126 16.5394 23.3743 16.8001 23.1672 16.8415C22.8218 16.9105 22.7335 16.8579 22.0959 16.2028C20.9814 15.058 20.9725 15.0796 23.4711 12.8353C24.6097 11.8126 25.6506 10.9119 25.7842 10.8337C26.0999 10.6492 28.1254 10.6386 28.4653 10.8198C28.606 10.8948 29.6567 11.7946 30.8 12.8194C32.7571 14.5735 32.8789 14.7071 32.8789 15.1002C32.8789 15.4543 32.7727 15.6239 32.1796 16.2164C31.5528 16.8425 31.4431 16.9075 31.1213 16.8432C30.9237 16.8037 30.3854 16.4546 29.9249 16.0674C29.2902 15.5337 28.9986 15.3633 28.7198 15.3633C28.2183 15.3633 27.8427 15.7775 27.8427 16.3304C27.8427 16.7147 27.925 16.8256 28.6918 17.4735C30.13 18.6889 30.8352 18.9242 32.0133 18.5821C32.5997 18.4118 32.8146 18.2631 33.4881 17.5618C34.4692 16.54 34.7529 15.9813 34.7529 15.0708C34.7529 14.2429 34.4458 13.5401 33.8595 13.0259L33.4505 12.6672L33.7445 11.9333C34.1897 10.8216 34.3013 10.1691 34.3005 8.6806C34.2985 4.62988 33.3184 2.61786 30.892 1.68316C29.1676 1.01884 27.102 0.820061 25.306 1.14555ZM28.6815 3.01168C30.5898 3.38291 31.3448 3.82868 31.8303 4.87101C32.1112 5.47414 32.4623 6.91662 32.356 7.03057C32.3392 7.04859 31.7254 6.77142 30.9917 6.41469C28.194 5.05412 25.9576 5.06792 23.175 6.46278C22.5237 6.78932 21.9635 7.05643 21.9301 7.05643C21.6759 7.05643 22.0825 5.14315 22.4695 4.51745C23.2219 3.30136 26.3157 2.5514 28.6815 3.01168ZM28.6087 7.47166C28.9926 7.57134 29.9919 8.01195 30.8293 8.4507L32.3519 9.24839L32.337 9.83292C32.3214 10.4398 32.1025 11.2684 31.9578 11.2684C31.912 11.2684 31.4023 10.8444 30.8248 10.3261C29.2313 8.89553 29.1664 8.8699 27.1399 8.8699C25.1424 8.8699 25.1034 8.88418 23.6848 10.1348C23.1695 10.5892 22.6325 11.0626 22.4916 11.1867L22.2352 11.4126L22.0628 10.7847C21.9679 10.4394 21.8639 9.96805 21.8317 9.73733L21.7733 9.31789L23.2178 8.54348C24.5034 7.85436 25.2834 7.52793 26.0273 7.368C26.5813 7.24877 27.9642 7.30435 28.6087 7.47166ZM24.935 13.1771C24.6185 13.5137 24.6048 14.074 24.9039 14.4436C25.1178 14.7077 25.2034 14.7215 26.8517 14.758C28.7826 14.8007 29.0236 14.7666 29.362 14.4038C29.6667 14.077 29.6646 13.6056 29.3567 13.2146L29.114 12.9064H27.1519C25.2523 12.9064 25.1815 12.915 24.935 13.1771ZM6.7512 16.5984C5.88672 17.2133 5.11231 17.8443 5.03032 18.0005C4.71081 18.6089 5.31364 19.4256 5.98346 19.2918C6.17004 19.2545 6.79501 18.879 7.37219 18.4575C7.94937 18.0358 8.46284 17.7068 8.51332 17.7263C8.56368 17.7459 9.69321 18.9072 11.0234 20.3072L13.4418 22.8527L13.2452 23.2322C12.9558 23.7909 11.6797 27.6541 11.6797 27.9715C11.6797 28.6428 12.7106 29.0753 13.1838 28.6026C13.3025 28.4841 13.7054 27.4819 14.0792 26.3756C14.4531 25.2692 14.7987 24.3791 14.8473 24.3974C14.9195 24.4246 21.3579 31.1821 22.3237 32.2444L22.6025 32.5509L22.2991 32.9109C21.5033 33.8557 21.857 35.509 23.159 36.9298C24.4604 38.3498 26.7532 39.5205 29.1486 39.988C29.4143 40.0398 29.459 40.108 29.459 40.4619C29.459 40.9995 29.5651 41.1134 30.6986 41.7934C34.0785 43.821 37.1112 44.7284 40.5108 44.7295C41.6382 44.7298 42.1646 44.6768 42.7066 44.5082C44.1294 44.066 45.2121 43.1187 45.9073 41.708C46.2353 41.0425 46.2887 40.8006 46.329 39.7991L46.375 38.6524L43.8326 31.0736C42.2625 26.3928 41.1305 23.204 40.8726 22.7342C40.6311 22.2945 40.0924 21.6152 39.5956 21.1239C38.8251 20.3617 38.5517 20.1848 36.9495 19.4126C34.5253 18.2441 34.4224 18.2109 33.9581 18.4508C33.5381 18.6678 33.3755 19.0956 33.5355 19.5624C33.6206 19.8102 34.0202 20.0551 35.6573 20.8622C37.8701 21.9533 38.6483 22.5643 39.2644 23.6951C39.4382 24.0141 40.6815 27.574 42.0273 31.6057C44.7147 39.6571 44.7367 39.7499 44.2311 40.869C43.8893 41.6254 43.1321 42.3495 42.3946 42.6251C41.0994 43.1091 38.1095 42.8694 35.7207 42.09C34.5511 41.7083 32.3757 40.7034 31.8602 40.3067L31.6027 40.1085L32.878 37.7124C33.5796 36.3945 34.2098 35.2974 34.2788 35.2745C34.3478 35.2514 35.1648 35.5532 36.0944 35.9449C37.024 36.3366 37.8707 36.657 37.976 36.657C38.27 36.657 38.8522 36.0107 38.8522 35.6845C38.8522 35.5258 38.7599 35.2842 38.6472 35.1474C38.4297 34.8837 34.1815 33.0301 33.7944 33.0301C33.6689 33.0301 33.4738 33.0796 33.3608 33.1399C33.1983 33.2268 32.9817 33.1081 32.3269 32.5738C30.865 31.3805 30.7036 31.3319 28.2526 31.3444C26.8633 31.3514 25.8524 31.4155 25.2882 31.5324L24.4321 31.7096L20.1641 27.2242C17.8167 24.757 15.8961 22.6875 15.8961 22.6253C15.8961 22.3869 17.4267 21.4513 18.9792 20.7409C20.6137 19.9928 20.9324 19.7492 20.9324 19.2478C20.9324 18.9265 20.341 18.2883 20.0431 18.2883C19.7662 18.2883 16.8146 19.6428 16.0133 20.1376C15.659 20.3563 15.1846 20.7108 14.9592 20.9253L14.5492 21.3151L13.0361 19.714C9.46084 15.9305 8.99434 15.4803 8.64988 15.4803C8.42454 15.4803 7.83459 15.8277 6.7512 16.5984ZM1.60717 18.013C0.928916 18.2875 0.721022 18.9599 1.14723 19.501C1.36801 19.7814 1.46381 19.8093 2.20661 19.8093C2.91754 19.8093 3.06055 19.7721 3.31072 19.522C3.669 19.1642 3.67755 18.7441 3.33473 18.3474C3.12508 18.1048 2.93944 18.0322 2.42703 17.9922C2.07274 17.9645 1.7038 17.9739 1.60717 18.013ZM1.63517 20.7055C1.1347 20.9508 0.553069 21.6206 0.553069 21.9517C0.553069 22.3031 0.861687 22.7238 1.21891 22.8594C1.59851 23.0036 2.18529 22.7314 2.66058 22.1906C3.08023 21.7133 3.10716 21.3302 2.74912 20.9368C2.39283 20.5453 2.0903 20.4825 1.63517 20.7055ZM4.33707 21.3325C3.95923 21.4829 3.75017 21.8891 3.66069 22.6469C3.58526 23.2869 3.59861 23.3376 3.93218 23.6707C4.74442 24.4822 5.57541 23.7947 5.58654 22.302C5.59145 21.6436 4.90125 21.1078 4.33707 21.3325ZM27.0814 22.2844C26.5599 22.5693 26.5543 22.6125 26.5543 26.3092C26.5543 29.7036 26.5637 29.8515 26.7971 30.1478C26.9843 30.3857 27.1431 30.4561 27.4913 30.4561C27.8395 30.4561 27.9983 30.3857 28.1855 30.1478C28.4186 29.8519 28.4283 29.7024 28.4283 26.4094C28.4283 22.7775 28.3931 22.5115 27.8828 22.2791C27.5315 22.1193 27.3818 22.1202 27.0814 22.2844ZM29.791 25.1997C29.3551 25.5422 29.3551 26.2442 29.791 26.5866C30.0763 26.8109 30.2532 26.8292 32.1387 26.8292C34.1476 26.8292 34.1822 26.825 34.4654 26.5419C34.6467 26.3609 34.7529 26.1211 34.7529 25.8932C34.7529 25.6653 34.6467 25.4254 34.4654 25.2444C34.1822 24.9614 34.1476 24.9572 32.1387 24.9572C30.2532 24.9572 30.0763 24.9754 29.791 25.1997ZM8.92207 30.3924C8.42887 30.8849 8.52925 31.1775 9.86491 33.138L11.0941 34.9423V35.6827V36.423H10.3251C8.91317 36.423 8.76021 36.6264 8.75541 38.5095L8.75166 39.9525L7.0241 41.8835C6.074 42.9455 5.2046 43.9546 5.09216 44.1259C4.90476 44.4117 4.88778 44.9192 4.8872 50.264C4.88661 56.407 4.90453 56.6278 5.41893 56.8251C5.80801 56.9743 6.25613 56.8925 6.50595 56.627C6.75975 56.357 6.76057 56.3396 6.76057 50.9526V45.5489H13.8465H20.9324V50.9361V56.3234L21.22 56.6105C21.5689 56.9592 22.0863 56.9855 22.4713 56.6742L22.7478 56.4506L22.7802 50.3545L22.8125 44.2584L22.2997 43.7044C22.0177 43.3998 21.1466 42.4228 20.3641 41.5336L18.9413 39.9167V38.4571C18.9413 37.0633 18.9283 36.9844 18.6538 36.7103C18.3994 36.456 18.2647 36.423 17.4826 36.423H16.5989L16.6013 35.6918L16.6037 34.9606L17.8311 33.155C19.1684 31.1877 19.2695 30.8904 18.7709 30.3924L18.4835 30.1051H13.8465H9.20949L8.92207 30.3924ZM15.5506 33.189L14.7249 34.4007V35.4119V36.423H13.8465H12.9681V35.3775V34.3322L12.1534 33.1546L11.3388 31.9771H13.8576H16.3765L15.5506 33.189ZM30.2018 33.3598C30.6742 33.6003 32.1563 34.7922 32.1684 34.9411C32.1783 35.0648 30.5479 38.1572 30.4365 38.226C30.3909 38.2541 29.9166 38.2014 29.3825 38.1087C26.8949 37.6775 24.6446 36.296 23.9045 34.7454C23.6203 34.1501 23.7536 33.9697 24.7182 33.6439C25.7 33.3122 26.7134 33.1807 28.4328 33.1618C29.5284 33.1499 29.8633 33.1873 30.2018 33.3598ZM17.0674 39.3557C17.0674 39.9391 17.1276 40.5313 17.2012 40.672C17.2749 40.8125 17.8849 41.5462 18.5568 42.3022L19.7785 43.6769H13.9068C9.24006 43.6769 8.05338 43.6469 8.124 43.5307C8.17296 43.4503 8.75576 42.7655 9.41926 42.0091L10.6256 40.6337V39.4644V38.295H13.8465H17.0674V39.3557ZM27.1817 41.2201C26.5353 41.4778 26.5543 41.2362 26.5543 49.2072V56.5574L26.8419 56.8445C27.1908 57.1932 27.7082 57.2195 28.0932 56.9082L28.3697 56.6845L28.4016 49.2543L28.4333 41.8239L28.1673 41.5314C27.8524 41.1851 27.527 41.0824 27.1817 41.2201ZM37.7073 46.3425C37.5608 46.3658 37.3556 46.5151 37.2514 46.6741C37.0212 47.0249 37.024 47.2216 37.3346 52.5049C37.584 56.7453 37.6205 56.9365 38.2118 57.0846C38.6246 57.1882 39.1607 56.9345 39.3082 56.566C39.467 56.1687 38.9593 47.1373 38.7568 46.7595C38.6057 46.4774 38.1063 46.279 37.7073 46.3425Z" fill="#1BB7B5"/>
</svg>
