<svg width="56" height="44" viewBox="0 0 56 44" fill="none" xmlns="http://www.w3.org/2000/svg">
<path fill-rule="evenodd" clip-rule="evenodd" d="M47.8472 39.789C43.0891 44.4363 37.0639 44.7515 31.0882 43.0639C24.6859 41.2558 18.3507 37.1275 13.7609 33.6393C13.399 33.365 13.4872 33.0188 13.6538 32.6791C8.30011 29.038 2.67351 21.6711 0.723587 15.744C-0.378213 12.3944 -0.709594 8.05654 3.35125 6.66279C5.96155 5.76706 10.3151 6.25236 16.9721 8.88579C16.9303 8.5701 16.8825 8.25595 16.8244 7.94375C16.753 7.55389 17.0484 7.1937 17.4424 7.18517C22.4444 6.99765 27.484 6.3832 32.4796 5.9571C32.9638 -4.2075 49.1814 0.474866 51.8576 6.42476C59.5898 15.1045 55.4831 32.7679 47.8472 39.789ZM47.4783 34.3577C46.5779 34.8861 45.9593 35.1309 44.9221 35.288C39.0126 36.1835 28.5661 32.4377 23.0891 30.1672C22.3063 29.8424 21.8129 31.0319 22.5951 31.3564C28.3411 33.7385 38.9023 37.5038 45.1137 36.5628C46.3056 36.3823 47.0944 36.0733 48.1286 35.4663C48.8568 35.0395 48.2067 33.9309 47.4783 34.3577ZM53.5947 26.4892C54.0361 26.2719 54.6668 21.4875 54.7254 20.7586C47.3023 18.544 33.8217 20.7762 25.6304 21.5034C24.7882 21.5764 24.6776 20.2965 25.5194 20.2236C29.0958 19.9065 33.4671 19.3346 37.9167 18.9409C40.4636 18.7156 43.0362 18.5486 45.5 18.5212C48.9315 18.4831 52.152 18.7158 54.798 19.4387C54.927 15.0702 53.911 10.7173 50.9636 7.35841C42.0481 5.67513 30.1486 7.59602 21.0031 8.26714C22.6369 19.2161 23.3599 24.7161 17.2728 34.6116C21.3851 37.4837 26.4017 40.4024 31.4359 41.8241C36.0043 43.1143 40.5931 43.1592 44.5132 40.7665C36.4836 42.2652 27.8697 38.9109 21.1105 34.8019C20.3885 34.3616 21.0591 33.2633 21.781 33.7034C26.7555 36.7275 42.9328 43.4082 47.6346 38.1511C49.9922 35.5136 52.0974 31.3433 53.1677 28.1634C51.4596 29.0916 48.7009 30.71 46.7875 30.71C40.5883 30.71 30.6192 28.3205 24.4002 26.7934C23.5782 26.5915 23.8853 25.3417 24.7078 25.5438C32.096 27.3579 39.2194 28.7472 46.8109 29.4196C48.6813 29.4021 52.3875 27.3816 53.5947 26.4892ZM16.2207 33.864C22.073 24.3107 21.2868 18.9014 19.7133 8.35558C19.2013 8.38805 18.6994 8.41603 18.2094 8.43926C19.7424 19.0094 19.9218 23.1061 14.9666 32.9405C15.3722 33.2448 15.7908 33.5535 16.2207 33.864ZM33.7739 5.84991C34.3709 5.80219 34.9674 5.75657 35.5624 5.71431C36.6074 1.16866 45.3039 3.35389 47.0614 5.54219C48.0822 5.61678 49.0628 5.72522 49.9934 5.87356C46.7078 1.88541 34.3323 -2.15507 33.7739 5.84991ZM36.9426 5.62209C39.5873 5.45725 42.3691 5.36825 44.7977 5.42646C43.9685 4.44314 37.9524 3.24852 36.9426 5.62209ZM14.2346 31.5194C14.4395 31.1042 14.6347 30.7024 14.8202 30.3121C10.873 27.2794 5.82813 21.0449 3.91797 16.2349C2.86489 13.5827 2.28207 9.93615 5.93243 9.16119C8.07499 8.70626 11.6943 9.39124 17.3062 11.8043C17.2426 11.3152 17.1876 10.8275 17.1363 10.3371C10.4358 7.60651 6.19059 7.05139 3.76985 7.88218C0.497627 9.00502 1.09403 12.7472 1.94873 15.3459C3.80569 20.9904 9.13367 27.9935 14.2346 31.5194ZM15.3764 29.1126C18.0524 23.179 18.2579 19.7438 17.4915 13.2877C11.7511 10.7462 8.18573 9.99912 6.19969 10.4207C3.53479 10.9862 4.39719 13.959 5.11273 15.7612C6.91075 20.2887 11.6132 26.1385 15.3764 29.1126Z" fill="#1BB7B5"/>
</svg>
