<svg width="45" height="59" viewBox="0 0 45 59" fill="none" xmlns="http://www.w3.org/2000/svg">
<path fill-rule="evenodd" clip-rule="evenodd" d="M4.02495 0.287695L3.73725 0.575274V4.81301V9.05062L2.21323 10.9577C1.37499 12.0067 0.544478 13.1739 0.367525 13.5516L0.0458451 14.2383L0.0147905 32.3954C-0.0190767 52.1171 -0.0507176 51.0371 0.599673 52.3207C0.882915 52.8796 4.73686 56.8157 5.49014 57.3154C5.77737 57.5059 6.34983 57.7661 6.76221 57.8934C7.49241 58.119 7.90127 58.125 22.4703 58.1236C38.473 58.1221 37.9486 58.1405 39.1279 57.5412C39.7382 57.2311 43.6443 53.426 44.1776 52.6221C44.3681 52.3349 44.6283 51.7624 44.7557 51.35C44.9824 50.6161 44.9872 50.1929 44.9858 31.1889C44.9844 10.789 44.995 11.2293 44.4847 10.2431C44.3816 10.0438 43.1599 8.09262 41.7699 5.90719C38.9719 1.50797 38.4174 0.835547 37.1747 0.334336L36.4911 0.0585938L29.2873 0.0257813C22.3364 -0.00585935 22.0561 0.00140625 21.3015 0.230508C20.4972 0.474844 19.5373 1.10238 19.0813 1.68211C18.9401 1.86164 17.9644 3.35695 16.9131 5.00496C15.7887 6.7677 14.866 8.09098 14.6721 8.21871C14.3663 8.42039 14.0303 8.43598 9.97748 8.43668L5.61225 8.4375V5.15625V1.875H9.36225H13.1122V3.93105C13.1122 5.95793 13.1164 5.99133 13.3999 6.2748C13.5812 6.45621 13.8215 6.5625 14.0497 6.5625C14.278 6.5625 14.5183 6.45621 14.6996 6.2748L14.9872 5.98723V3.28125V0.575274L14.6996 0.287695L14.412 0H9.36225H4.31252L4.02495 0.287695ZM36.8058 2.25633C37.1077 2.43375 37.4768 2.7491 37.6261 2.95699C38.5702 4.27207 42.8985 11.2427 42.9961 11.6054C43.0749 11.8977 43.1046 18.595 43.0844 31.4238L43.0536 50.8008L42.7982 51.2695C42.4834 51.847 38.638 55.6764 38.0732 55.9747C37.6804 56.1823 37.0234 56.1914 22.4872 56.1914H7.31147L6.84272 55.9359C6.12131 55.5428 2.38995 51.7296 2.10424 51.0938C1.86987 50.572 1.86741 50.3771 1.86741 32.6953C1.86741 15.1266 1.87127 14.8155 2.09979 14.3121C2.22752 14.0305 2.95151 13.018 3.70854 12.0621L5.08491 10.3241L9.72178 10.3182C15.108 10.3116 15.2364 10.2932 16.1472 9.39762C16.4785 9.07172 17.4892 7.61203 18.6273 5.81578C19.7822 3.99293 20.7011 2.6673 20.9316 2.49152C21.7412 1.87395 21.6596 1.87969 29.2255 1.90758L36.2568 1.93359L36.8058 2.25633ZM22.787 3.92484C22.533 4.01543 22.1902 4.18676 22.0253 4.3057C21.7322 4.51699 20.5776 6.15703 19.9 7.32422C19.306 8.34727 19.4939 9.32578 20.4157 10.0087C20.7442 10.252 20.8085 10.2539 29.0497 10.2539C37.291 10.2539 37.3553 10.252 37.6838 10.0087C38.6056 9.32578 38.7935 8.34727 38.1995 7.32422C37.4125 5.96848 36.3469 4.49379 35.9776 4.24922C35.7595 4.10496 35.3904 3.93387 35.1573 3.86906C34.8987 3.79723 32.4932 3.75305 28.9912 3.75574C24.3671 3.75937 23.159 3.7923 22.787 3.92484ZM34.9619 5.88867C35.1271 6.03363 35.5769 6.65332 35.9615 7.26562L36.6607 8.37891L32.8553 8.40984C30.7622 8.42684 27.3373 8.42684 25.2442 8.40984L21.4388 8.37891L22.138 7.26562C22.5226 6.65332 22.9724 6.03363 23.1376 5.88867L23.4379 5.625H29.0497H34.6616L34.9619 5.88867ZM10.5341 18.8228C9.72612 18.9798 8.84123 19.2954 7.78022 19.8049C6.55432 20.3936 5.7244 20.625 4.8394 20.625C3.85842 20.625 3.37655 21.564 4.02495 22.2123C4.25862 22.4461 4.42889 22.4996 4.93315 22.498C5.97928 22.4945 7.12444 22.1796 8.53807 21.5066C11.0085 20.3304 12.6174 20.3127 14.8539 21.4372C16.5886 22.3095 17.0747 22.428 18.913 22.428C20.7513 22.428 21.2374 22.3095 22.9722 21.4372C25.2089 20.3126 26.8176 20.3303 29.2888 21.507C31.0015 22.3223 31.9935 22.5441 33.5615 22.4614C34.9404 22.3889 35.5785 22.2104 37.1799 21.4498C38.427 20.8574 39.2596 20.625 40.1351 20.625C41.1161 20.625 41.5979 19.686 40.9496 19.0377C40.3745 18.4625 38.5678 18.7407 36.4454 19.731C33.8267 20.953 32.4374 20.9486 29.8701 19.71C28.2854 18.9456 27.0871 18.6906 25.5365 18.7879C24.1927 18.8722 23.4641 19.0788 22.1065 19.7607C19.7612 20.9386 18.2044 20.9365 15.6904 19.752C14.9492 19.4027 14.1318 19.0586 13.874 18.9871C13.366 18.8461 11.0101 18.7303 10.5341 18.8228ZM19.0249 28.4127L18.7372 28.7003V31.6939V34.6875H15.7437H12.75L12.4624 34.9752L12.1747 35.2628V38.4375V41.6122L12.4624 41.8998L12.75 42.1875H15.7437H18.7372V45.1811V48.1747L19.0249 48.4623L19.3125 48.75H22.4872H25.662L25.9496 48.4623L26.2372 48.1747V45.1811V42.1875H29.2308H32.2245L32.5121 41.8998L32.7997 41.6122V38.4375V35.2628L32.5121 34.9752L32.2245 34.6875H29.2308H26.2372V31.6939V28.7003L25.9496 28.4127L25.662 28.125H22.4872H19.3125L19.0249 28.4127ZM24.3622 32.9936V35.9872L24.6499 36.2748L24.9375 36.5625H27.9312H30.9247V38.4375V40.3125H27.9312H24.9375L24.6499 40.6002L24.3622 40.8878V43.8814V46.875H22.4872H20.6122V43.8814V40.8878L20.3246 40.6002L20.037 40.3125H17.0433H14.0497V38.4375V36.5625H17.0433H20.037L20.3246 36.2748L20.6122 35.9872V32.9936V30H22.4872H24.3622V32.9936Z" fill="#1BB7B5"/>
</svg>
