<svg width="60" height="60" viewBox="0 0 60 60" fill="none" xmlns="http://www.w3.org/2000/svg">
<path d="M39.4034 20.6211C41.4669 20.6186 43.4452 19.797 44.9043 18.3365C46.3634 16.876 47.1843 14.8959 47.1867 12.8304C47.1867 7.45856 40.3401 0.563243 40.0638 0.272618C39.8883 0.0980079 39.6509 0 39.4034 0C39.156 0 38.9186 0.0980079 38.7431 0.272618C38.4668 0.563243 31.6201 7.45856 31.6201 12.8304C31.6226 14.8959 32.4434 16.876 33.9025 18.3365C35.3617 19.797 37.3399 20.6186 39.4034 20.6211ZM39.4034 2.29293C41.5108 4.58512 45.3088 9.41325 45.3088 12.8304C45.3088 14.3994 44.6862 15.904 43.5778 17.0134C42.4694 18.1228 40.9662 18.7461 39.3987 18.7461C37.8313 18.7461 36.3281 18.1228 35.2197 17.0134C34.1113 15.904 33.4887 14.3994 33.4887 12.8304C33.4934 9.11793 37.7409 4.11168 39.4034 2.29293Z" fill="#1BB7B5"/>
<path d="M36.2891 13.7538H38.4668V15.9335C38.4668 16.1822 38.5655 16.4206 38.7411 16.5964C38.9168 16.7723 39.155 16.871 39.4034 16.871C39.6518 16.871 39.89 16.7723 40.0657 16.5964C40.2413 16.4206 40.34 16.1822 40.34 15.9335V13.7538H42.5177C42.7661 13.7538 43.0043 13.6551 43.18 13.4793C43.3556 13.3034 43.4543 13.065 43.4543 12.8163C43.4543 12.5677 43.3556 12.3292 43.18 12.1534C43.0043 11.9776 42.7661 11.8788 42.5177 11.8788H40.34V9.69916C40.34 9.45052 40.2413 9.21206 40.0657 9.03624C39.89 8.86043 39.6518 8.76166 39.4034 8.76166C39.155 8.76166 38.9168 8.86043 38.7411 9.03624C38.5655 9.21206 38.4668 9.45052 38.4668 9.69916V11.8788H36.2891C36.0407 11.8788 35.8025 11.9776 35.6269 12.1534C35.4512 12.3292 35.3525 12.5677 35.3525 12.8163C35.3525 13.065 35.4512 13.3034 35.6269 13.4793C35.8025 13.6551 36.0407 13.7538 36.2891 13.7538Z" fill="#1BB7B5"/>
<path d="M59.6625 51.1976C59.3408 50.7227 58.9084 50.3334 58.4027 50.0632C58.5393 49.8623 58.6465 49.6429 58.7212 49.4116C59.3066 47.6023 57.8595 46.6695 56.8105 45.9898L56.581 45.8398C55.295 45.1717 53.9722 44.577 52.6191 44.0585C53.0092 43.6861 53.2562 43.1884 53.3169 42.6523C53.3499 42.2439 53.2957 41.8333 53.1577 41.4476C53.6327 41.235 54.0513 40.9139 54.38 40.5101C54.6233 40.196 54.7982 39.8343 54.8934 39.4484C54.9886 39.0625 55.0019 38.6609 54.9326 38.2695C54.8935 37.9747 54.7944 37.6912 54.6413 37.4364C54.4883 37.1815 54.2845 36.9609 54.0428 36.7882C53.5709 36.4622 53.0252 36.2592 52.4552 36.1976C52.5113 35.9629 52.5319 35.7212 52.5161 35.4804C52.3943 33.6054 50.7131 33.2445 49.4814 33.0007L49.2192 32.9445C48.2826 32.757 43.4309 32.7241 41.8433 32.7429L42.1805 32.4007C43.6182 30.9335 44.2223 29.0585 43.7587 27.4179C43.6706 26.9794 43.4701 26.5712 43.1771 26.2335C42.884 25.8958 42.5083 25.6401 42.0868 25.4913C40.5273 25.0976 39.113 26.5413 38.1764 27.4976C37.9985 27.6804 37.755 27.9288 37.666 27.9945C37.4599 28.121 36.912 28.4632 35.9004 29.157C34.1583 30.3195 31.5733 32.0398 29.9248 33.0382C28.548 33.0382 27.0166 32.996 26.1502 32.982L25.4665 32.8085C26.6701 31.5429 28.4918 29.4523 29.5174 27.4413C30.454 25.5991 30.454 23.6445 29.5174 22.2101C29.2999 21.8188 28.9843 21.491 28.6015 21.2592C28.2188 21.0273 27.7823 20.8995 27.3351 20.8882C25.8552 20.982 24.6844 22.557 23.6167 24.1695C23.4809 24.3757 23.3123 24.6382 23.2701 24.6804C23.1343 24.8117 22.4693 25.2851 21.8652 25.707C20.2027 26.8882 17.7019 28.6835 16.3625 30.207C15.9223 30.7085 14.2926 32.4851 12.8549 34.0554C11.6748 35.3445 10.6585 36.4601 10.4291 36.7179C10.1996 36.9757 9.75001 37.4398 9.26297 37.9648C8.69631 38.546 8.11561 39.146 7.75032 39.5585C7.12279 39.9476 3.70881 40.6929 0.847433 41.171C0.721297 41.1857 0.599452 41.2258 0.489305 41.2891C0.379158 41.3523 0.283007 41.4373 0.206698 41.5389C0.130389 41.6405 0.0755149 41.7565 0.0454104 41.88C0.0153059 42.0035 0.0106 42.1318 0.0315787 42.2572C0.0525574 42.3825 0.0987825 42.5023 0.167445 42.6092C0.236107 42.7161 0.325772 42.808 0.430991 42.8791C0.536209 42.9503 0.654784 42.9993 0.779508 43.0231C0.904232 43.047 1.0325 43.0452 1.15652 43.0179C5.83962 42.2351 8.53708 41.5038 9.11779 40.8429C9.45029 40.4679 10.0544 39.8351 10.6117 39.2726C11.169 38.7101 11.5858 38.2413 11.834 37.9648L14.2364 35.3304C15.6788 33.7554 17.3132 31.9695 17.7675 31.4538C18.9663 30.0945 21.3735 28.3741 22.9657 27.2351C23.5638 26.8513 24.1278 26.4169 24.6516 25.9367C24.8374 25.7064 25.0094 25.4654 25.1668 25.2148C25.5602 24.6195 26.7637 22.8101 27.4193 22.7679C27.7145 22.9116 27.9451 23.1608 28.0656 23.4663C28.2717 23.8742 28.6651 24.9992 27.8502 26.5976C26.6888 28.8757 24.2583 31.3976 23.3544 32.2976C21.72 31.9413 20.6382 32.0163 20.1418 32.5273C19.9802 32.6914 19.8847 32.9093 19.8735 33.1395C19.8622 33.3696 19.9361 33.5958 20.0808 33.7749C20.2256 33.954 20.4312 34.0735 20.6584 34.1106C20.8856 34.1476 21.1185 34.0996 21.3126 33.9757C21.439 33.9476 22.001 33.8773 23.4106 34.2335L25.7943 34.8335C25.863 34.8521 25.9339 34.8615 26.005 34.8616C26.6045 34.8616 31.887 34.9788 32.8611 34.9132C33.3763 34.8804 35.7646 34.8101 37.872 34.7538C39.6563 34.6976 41.197 34.6554 41.5014 34.6366C42.2835 34.5851 48.1421 34.6366 48.8352 34.7913L49.1115 34.8476C50.4368 35.1101 50.6194 35.2413 50.6428 35.607C50.6458 35.7317 50.6179 35.8552 50.5615 35.9664C50.5051 36.0777 50.422 36.1732 50.3197 36.2445L31.4421 38.4335C31.1937 38.4478 30.9612 38.5603 30.7956 38.7462C30.6301 38.9322 30.5451 39.1763 30.5594 39.4249C30.5737 39.6736 30.686 39.9063 30.8718 40.0721C31.0575 40.2378 31.3014 40.3228 31.5498 40.3085H31.6576L50.7646 38.0726H50.8021C51.4343 37.9741 52.5161 37.9835 52.9516 38.307C52.9924 38.3331 53.0266 38.3683 53.0518 38.4097C53.077 38.4511 53.0923 38.4977 53.0968 38.546C53.1299 38.684 53.1327 38.8274 53.1053 38.9666C53.0778 39.1057 53.0206 39.2373 52.9376 39.3523C52.5639 39.7061 52.0823 39.924 51.5701 39.971H51.4858L32.1118 43.3835C31.8634 43.4047 31.6336 43.5237 31.4728 43.7145C31.3121 43.9052 31.2337 44.1521 31.2548 44.4007C31.2759 44.6493 31.3948 44.8794 31.5854 45.0403C31.776 45.2012 32.0226 45.2797 32.271 45.2585H32.435L51.3172 41.9351C51.4229 42.1094 51.4689 42.3135 51.4483 42.5163C51.4202 42.6476 50.98 43.2945 49.4159 43.8241C47.744 44.396 44.6251 45.1179 44.5923 45.1226L30.6741 48.132C30.5511 48.1449 30.4319 48.1819 30.3232 48.241C30.2145 48.3 30.1185 48.38 30.0406 48.4761C29.9628 48.5723 29.9046 48.6829 29.8695 48.8016C29.8343 48.9203 29.8229 49.0448 29.8358 49.1679C29.8487 49.291 29.8858 49.4104 29.9448 49.5192C30.0038 49.628 30.0836 49.7241 30.1797 49.802C30.2758 49.8799 30.3863 49.9381 30.5049 49.9733C30.6235 50.0084 30.7478 50.0199 30.8708 50.007C30.9377 50.0137 31.0052 50.0137 31.0722 50.007L44.8967 47.0163C44.9714 47.0243 45.0413 47.0573 45.0949 47.1101C45.1485 47.1629 45.1826 47.2323 45.1917 47.307C45.2807 47.6538 44.6157 48.0851 43.9179 48.296C43.5714 48.4038 42.9157 48.6523 42.0868 48.9663C40.34 49.6226 37.4037 50.7288 36.4999 50.7851C35.3947 50.8554 33.7837 51.4695 31.9104 52.1913C30.9457 52.5616 29.9435 52.9366 29.0022 53.246C26.2392 54.1413 19.3691 55.196 16.8543 54.9663C13.8946 54.6945 12.1993 54.9663 7.80184 56.3726C3.01571 57.821 0.894264 58.121 0.875531 58.121C0.627124 58.1378 0.395552 58.2527 0.231758 58.4403C0.0679642 58.628 -0.0146344 58.8732 0.00213311 59.1218C0.0189006 59.3704 0.133661 59.6022 0.321167 59.7662C0.508674 59.9301 0.753568 60.0128 1.00198 59.996H1.12842C1.2174 59.996 3.39972 59.6726 8.37318 58.0788C12.7566 56.6726 14.1521 56.5273 16.681 56.757C18.4184 56.921 21.6638 56.5648 24.5861 56.0679C26.3906 56.8339 28.2758 57.3937 30.2058 57.7366C31.1003 57.9288 31.9526 58.1116 32.7768 58.332C35.9988 59.1945 45.7818 59.9773 45.8895 59.9866C45.9972 59.996 46.2079 59.9866 46.3578 59.9866C48.0765 59.9866 49.266 59.1945 49.4393 57.896C49.4561 57.7827 49.4639 57.6683 49.4627 57.5538C50.5024 57.6851 51.7574 57.8257 52.6894 57.8726C54.7687 57.9663 56.3141 57.4038 56.8199 56.3679C57.0022 56.0001 57.1029 55.5971 57.1149 55.1866C57.6337 55.1675 58.1407 55.0262 58.5948 54.7741C58.9356 54.5715 59.2306 54.3002 59.4612 53.9775C59.6918 53.6547 59.8528 53.2875 59.9341 52.8991C60.0062 52.6119 60.0193 52.313 59.9726 52.0205C59.9259 51.728 59.8204 51.4481 59.6625 51.1976ZM37.8158 32.8695C36.1627 32.9163 34.4674 32.9632 33.484 33.0007C34.6922 32.2132 35.952 31.3741 36.9354 30.7179C37.755 30.1741 38.4668 29.7007 38.6401 29.5976C38.9608 29.3691 39.2546 29.1049 39.5158 28.8101C39.9841 28.3413 41.0846 27.207 41.6091 27.3054C41.8405 27.5342 41.9818 27.8387 42.0072 28.1632C42.0775 28.632 42.1102 29.8038 40.8458 31.0788C39.9513 31.9835 39.4409 32.4851 39.1786 32.7757L39.1224 32.8085L37.8158 32.8695ZM50.0247 45.5679C50.262 45.4835 50.4914 45.3945 50.7131 45.3007C51.8511 45.732 54.9888 47.0398 55.5554 47.4101L55.7896 47.5648C56.9276 48.3007 57.0493 48.5023 56.9369 48.8351C56.8944 48.9518 56.8231 49.0558 56.7299 49.1378C56.6366 49.2197 56.5242 49.2768 56.4031 49.3038L47.0369 46.8101C47.0347 46.8008 47.0347 46.7912 47.0369 46.782C47.0088 46.6707 46.9744 46.5611 46.9338 46.4538C47.922 46.2007 49.1443 45.8679 50.0247 45.5679ZM46.0487 58.121C43.3606 57.9054 35.8208 57.1835 33.2826 56.5273C32.4115 56.2929 31.503 56.096 30.6179 55.9085C29.8077 55.7351 28.9835 55.5523 28.178 55.346C28.7166 55.2148 29.1942 55.0835 29.5829 54.957C30.1917 54.7601 30.8146 54.5351 31.4328 54.3054L47.4209 57.2866C47.4904 57.3191 47.5466 57.3747 47.5799 57.4439C47.6132 57.5131 47.6215 57.5917 47.6035 57.6663C47.552 58.0132 46.7746 58.1679 46.0487 58.121ZM55.162 55.5523C55.0824 55.6648 54.4127 56.096 52.7877 56.021C51.055 55.9413 47.9735 55.482 47.8377 55.4585L34.8655 53.0398C35.4307 52.8277 36.0184 52.6814 36.617 52.6038C37.6763 52.4453 38.7146 52.1686 39.7125 51.7788L55.2463 54.9663C55.2791 55.1611 55.2496 55.3612 55.162 55.5382V55.5523ZM58.1218 52.482C58.0997 52.6244 58.0463 52.7602 57.9653 52.8794C57.8843 52.9986 57.7777 53.0982 57.6534 53.171C57.1768 53.3652 56.6484 53.3917 56.1549 53.246H56.1268C56.1096 53.2439 56.0924 53.2439 56.0752 53.246L43.0281 50.5695C43.6603 50.3257 44.1895 50.1288 44.4331 50.0491C45.2773 49.8316 46.0313 49.3525 46.5873 48.6804L56.094 51.207H56.1314C56.7543 51.3476 57.7565 51.7554 58.0421 52.2148C58.0759 52.2471 58.1018 52.2867 58.118 52.3306C58.1342 52.3744 58.1403 52.4214 58.1358 52.4679L58.1218 52.482Z" fill="#1BB7B5"/>
</svg>
