<svg width="19" height="19" viewBox="0 0 19 19" fill="none" xmlns="http://www.w3.org/2000/svg">
<path d="M15.8063 11.3892C15.3969 10.9628 14.903 10.7349 14.3796 10.7349C13.8604 10.7349 13.3623 10.9586 12.936 11.385L11.6021 12.7146C11.4923 12.6555 11.3826 12.6007 11.2771 12.5458C11.1251 12.4698 10.9816 12.398 10.8592 12.3221C9.60972 11.5285 8.47423 10.4943 7.38518 9.1562C6.85753 8.48926 6.50296 7.92785 6.24547 7.358C6.5916 7.04141 6.91241 6.71216 7.22477 6.39558C7.34297 6.27739 7.46116 6.15497 7.57935 6.03678C8.46579 5.15034 8.46579 4.00219 7.57935 3.11576L6.42698 1.96339C6.29612 1.83253 6.16105 1.69745 6.03441 1.56238C5.78114 1.30067 5.51521 1.03051 5.24084 0.777245C4.83139 0.372016 4.34174 0.156738 3.82676 0.156738C3.31178 0.156738 2.81369 0.372016 2.39157 0.777245C2.38735 0.781467 2.38735 0.781467 2.38313 0.785688L0.947943 2.23354C0.407638 2.77384 0.0994949 3.43234 0.0319567 4.19637C-0.0693506 5.42894 0.293667 6.57709 0.572262 7.32845C1.25609 9.17309 2.2776 10.8826 3.80143 12.7146C5.65029 14.9223 7.87483 16.6656 10.416 17.894C11.3868 18.3541 12.6827 18.8986 14.1306 18.9914C14.2192 18.9957 14.3121 18.9999 14.3965 18.9999C15.3716 18.9999 16.1905 18.6495 16.8321 17.9531C16.8363 17.9446 16.8447 17.9404 16.849 17.9319C17.0685 17.666 17.3217 17.4254 17.5877 17.1679C17.7692 16.9949 17.9549 16.8133 18.1364 16.6234C18.5543 16.1886 18.7738 15.6821 18.7738 15.1629C18.7738 14.6395 18.5501 14.1371 18.1237 13.715L15.8063 11.3892ZM17.3175 15.834C17.3133 15.834 17.3133 15.8383 17.3175 15.834C17.1529 16.0113 16.984 16.1717 16.8025 16.349C16.5282 16.6107 16.2496 16.8851 15.9879 17.1932C15.5615 17.6491 15.0592 17.8644 14.4007 17.8644C14.3374 17.8644 14.2698 17.8644 14.2065 17.8602C12.9529 17.78 11.7878 17.2903 10.914 16.8724C8.52488 15.7158 6.42698 14.0738 4.68365 11.9928C3.24424 10.2579 2.28182 8.65389 1.64443 6.93166C1.25187 5.8806 1.10835 5.0617 1.17166 4.28923C1.21387 3.79536 1.40383 3.38591 1.75418 3.03555L3.19359 1.59615C3.40042 1.40197 3.61992 1.29645 3.8352 1.29645C4.10113 1.29645 4.31641 1.45685 4.45149 1.59192C4.45571 1.59615 4.45993 1.60037 4.46415 1.60459C4.72164 1.84519 4.96647 2.09424 5.22395 2.36017C5.35481 2.49525 5.48989 2.63032 5.62496 2.76962L6.77733 3.92199C7.22477 4.36943 7.22477 4.7831 6.77733 5.23055C6.65492 5.35296 6.53673 5.47537 6.41431 5.59356C6.05974 5.95658 5.72205 6.29427 5.35481 6.62352C5.34637 6.63196 5.33793 6.63618 5.3337 6.64463C4.97069 7.00764 5.03822 7.36222 5.1142 7.60282C5.11843 7.61549 5.12265 7.62815 5.12687 7.64081C5.42657 8.36685 5.84868 9.05067 6.4903 9.86535L6.49452 9.86957C7.65955 11.3048 8.8879 12.4234 10.2429 13.2803C10.416 13.39 10.5932 13.4786 10.7621 13.5631C10.914 13.639 11.0576 13.7108 11.18 13.7868C11.1969 13.7952 11.2137 13.8079 11.2306 13.8163C11.3742 13.8881 11.5092 13.9219 11.6485 13.9219C11.9989 13.9219 12.2184 13.7024 12.2901 13.6306L13.7338 12.187C13.8773 12.0435 14.1052 11.8704 14.3712 11.8704C14.6329 11.8704 14.8481 12.035 14.979 12.1785C14.9832 12.1828 14.9832 12.1828 14.9874 12.187L17.3133 14.5128C17.7481 14.9434 17.7481 15.3866 17.3175 15.834Z" fill="white"/>
</svg>
