<svg width="16" height="14" viewBox="0 0 16 14" fill="none" xmlns="http://www.w3.org/2000/svg">
<path d="M13.9276 0.90625H1.34206C0.602975 0.90625 0 1.53737 0 2.3125V11.6875C0 12.46 0.60029 13.0938 1.34206 13.0938H13.9276C14.6649 13.0938 15.2697 12.4648 15.2697 11.6875V2.3125C15.2697 1.54 14.6694 0.90625 13.9276 0.90625ZM13.7423 1.84375L7.66331 8.21353L1.53171 1.84375H13.7423ZM0.89471 11.4934V2.50216L5.2036 6.97841L0.89471 11.4934ZM1.52736 12.1562L5.83896 7.63844L7.34974 9.20788C7.52463 9.38956 7.80685 9.38897 7.98102 9.20644L9.4541 7.66291L13.7424 12.1562H1.52736ZM14.375 11.4933L10.0867 7L14.375 2.50662V11.4933Z" fill="white"/>
</svg>
