<svg width="177" height="30" viewBox="0 0 177 30" fill="none" xmlns="http://www.w3.org/2000/svg">
<path d="M48.7321 11.9133H36.7493V13.5389H48.7321V11.9133ZM48.7321 8.67873V7.12012H33.9672V3.90234H48.2294C49.1232 3.90234 49.9332 4.21518 50.6595 4.84086C51.017 5.1537 51.3131 5.54475 51.5477 6.01401C51.7935 6.4721 51.9555 6.98605 52.0337 7.55586C52.0449 7.64524 52.0505 7.73463 52.0505 7.82401C52.0616 7.91339 52.0672 8.00277 52.0672 8.09216V16.7399H37.6208C36.9057 16.7399 36.2577 16.5947 35.6767 16.3042C35.2409 16.0919 34.8611 15.8293 34.5371 15.5165C34.213 15.2037 33.9505 14.8629 33.7494 14.4942C33.5483 14.1255 33.4142 13.7344 33.3472 13.321C33.2801 12.8965 33.2801 12.4663 33.3472 12.0306C33.4142 11.6172 33.5483 11.2261 33.7494 10.8574C33.9505 10.4887 34.2019 10.1591 34.5035 9.86864C34.8052 9.57814 35.146 9.33234 35.5259 9.13123C35.9169 8.93012 36.3359 8.79604 36.7828 8.72901C36.9951 8.69549 37.213 8.67873 37.4364 8.67873H48.7321Z" fill="white"/>
<path d="M57.8785 16.807V7.22068H69.5262V16.807H72.9115V3.95262H58.5154C58.0126 3.95262 57.521 4.07552 57.0405 4.32132C56.5713 4.56713 56.1467 4.89114 55.7668 5.29336C55.3981 5.68441 55.1021 6.13132 54.8786 6.6341C54.6551 7.12571 54.5434 7.62848 54.5434 8.14243V16.807H57.8785Z" fill="white"/>
<path d="M89.5073 16.807C90.0771 16.807 90.6357 16.712 91.1832 16.5221C91.7307 16.3209 92.2167 16.0472 92.6412 15.7009C93.0658 15.3433 93.4066 14.9188 93.6636 14.4272C93.9317 13.9355 94.0658 13.3993 94.0658 12.8183C94.0658 12.2485 93.954 11.7177 93.7306 11.2261C93.5071 10.7345 93.1999 10.3044 92.8088 9.93567C92.429 9.56697 91.982 9.27648 91.4681 9.06419C90.9653 8.85191 90.4402 8.74577 89.8927 8.74577H78.7646V3.95262H75.3792V16.807H89.5073ZM78.7646 13.5557V11.9133H90.6637V13.5557H78.7646Z" fill="white"/>
<path d="M96.526 3.96938V7.20392H103.967V16.7399H107.252V7.20392H114.71V3.96938H96.526Z" fill="white"/>
<path d="M132.534 11.9133H120.551V13.5389H132.534V11.9133ZM132.534 8.67873V7.12012H117.769V3.90234H132.031C132.925 3.90234 133.735 4.21518 134.461 4.84086C134.818 5.1537 135.115 5.54475 135.349 6.01401C135.595 6.4721 135.757 6.98605 135.835 7.55586C135.846 7.64524 135.852 7.73463 135.852 7.82401C135.863 7.91339 135.869 8.00277 135.869 8.09216V16.7399H121.422C120.707 16.7399 120.059 16.5947 119.478 16.3042C119.042 16.0919 118.663 15.8293 118.339 15.5165C118.015 15.2037 117.752 14.8629 117.551 14.4942C117.35 14.1255 117.216 13.7344 117.149 13.321C117.082 12.8965 117.082 12.4663 117.149 12.0306C117.216 11.6172 117.35 11.2261 117.551 10.8574C117.752 10.4887 118.003 10.1591 118.305 9.86864C118.607 9.57814 118.947 9.33234 119.327 9.13123C119.718 8.93012 120.137 8.79604 120.584 8.72901C120.797 8.69549 121.014 8.67873 121.238 8.67873H132.534Z" fill="white"/>
<path d="M149.825 3.96938L144.227 7.23743C143.646 7.58379 143.172 7.91898 142.803 8.24299C142.434 8.55583 142.138 8.95805 141.915 9.44966V3.95262H138.345V16.7399H141.915V11.3099C142.116 11.8127 142.378 12.2205 142.702 12.5334C143.037 12.835 143.479 13.1311 144.026 13.4216L149.825 16.7399H156.529L145.434 10.3547L156.445 3.96938H149.825Z" fill="white"/>
<path d="M163.526 4.0029C162.956 4.0029 162.398 4.09787 161.85 4.28781C161.314 4.46657 160.828 4.72355 160.392 5.05873C159.967 5.39392 159.627 5.79614 159.37 6.2654C159.113 6.72348 158.984 7.22626 158.984 7.77373V12.6172C158.984 13.2093 159.085 13.7568 159.286 14.2596C159.498 14.7512 159.783 15.1813 160.141 15.55C160.509 15.9076 160.94 16.1869 161.431 16.388C161.934 16.5891 162.476 16.6897 163.057 16.6897H172.928C173.453 16.6897 173.961 16.5891 174.453 16.388C174.945 16.1757 175.375 15.8964 175.744 15.55C176.123 15.1925 176.425 14.7791 176.649 14.3098C176.883 13.8406 177 13.3378 177 12.8015V8.0754C177 7.5391 176.889 7.02515 176.665 6.53355C176.442 6.03077 176.146 5.59503 175.777 5.22632C175.408 4.85762 174.978 4.56154 174.487 4.33808C174.006 4.11463 173.503 4.0029 172.978 4.0029H163.526ZM173.632 7.30447V13.4886H162.286V7.30447H173.632Z" fill="white"/>
<path d="M34.5312 22.4822H37.9823V23.4207H35.9586V27.2139H34.5312V22.4822Z" fill="#D2D2D2"/>
<path d="M43.1492 22.4822H44.4983V22.9514C44.5831 22.7429 44.7493 22.5962 44.9969 22.5115C45.2446 22.4268 45.6128 22.3844 46.1016 22.3844C46.5122 22.3844 46.8414 22.417 47.089 22.4822C47.3432 22.5473 47.5355 22.6516 47.6658 22.795C47.7897 22.9384 47.8744 23.0981 47.92 23.274C47.9656 23.4435 47.9885 23.6781 47.9885 23.9779V25.5324C47.9885 26.0016 47.92 26.3633 47.7832 26.6175C47.6463 26.8717 47.4345 27.0509 47.1477 27.1552C46.8675 27.2595 46.4829 27.3116 45.9941 27.3116C45.5248 27.3116 45.1859 27.2725 44.9774 27.1943C44.7688 27.1161 44.6352 26.9629 44.5766 26.7348V29.2473H43.1492V22.4822ZM45.5542 26.422C45.8344 26.422 46.0462 26.4024 46.1896 26.3633C46.333 26.3242 46.4308 26.2558 46.4829 26.158C46.5351 26.0603 46.5611 25.9136 46.5611 25.7181V23.9682C46.5611 23.7531 46.5383 23.5999 46.4927 23.5087C46.4471 23.4109 46.3558 23.3457 46.219 23.3131C46.0821 23.2806 45.8572 23.2643 45.5444 23.2643C45.2772 23.2643 45.0719 23.2871 44.9285 23.3327C44.7916 23.3783 44.6971 23.45 44.645 23.5478C44.5994 23.6455 44.5766 23.7857 44.5766 23.9682V25.7181C44.5766 25.9136 44.5994 26.0603 44.645 26.158C44.6971 26.2558 44.7916 26.3242 44.9285 26.3633C45.0654 26.4024 45.2739 26.422 45.5542 26.422Z" fill="#D2D2D2"/>
<path d="M54.7964 27.1748L52.9096 22.4822H54.464L55.5296 25.8256L56.4974 22.4822H57.9737L55.383 29.2473H53.9361L54.7964 27.1748Z" fill="#D2D2D2"/>
<path d="M63.0297 22.4822H67.6148V27.2139H66.1874V23.3914H64.4571V27.2139H63.0297V22.4822Z" fill="#D2D2D2"/>
<path d="M73.2134 22.4822H77.7985V27.2139H76.3711V23.3914H74.6408V27.2139H73.2134V22.4822Z" fill="#D2D2D2"/>
<path d="M84.7365 27.3116C84.2933 27.3116 83.9609 27.2725 83.7393 27.1943C83.5242 27.1096 83.3711 26.9629 83.2798 26.7544C83.1951 26.5393 83.1527 26.2199 83.1527 25.7963C83.1527 25.4183 83.1983 25.1217 83.2896 24.9067C83.3874 24.6916 83.5405 24.5384 83.7491 24.4472C83.9641 24.3494 84.2574 24.3005 84.6289 24.3005H86.2322V23.9779C86.2322 23.7759 86.2029 23.626 86.1442 23.5282C86.0921 23.4305 85.9911 23.362 85.8412 23.3229C85.6978 23.2838 85.4795 23.2643 85.1862 23.2643C84.7821 23.2643 84.2281 23.3034 83.5242 23.3816V22.4822C84.0391 22.417 84.642 22.3844 85.3328 22.3844C85.9389 22.3844 86.4049 22.43 86.7308 22.5213C87.0632 22.6125 87.3011 22.7689 87.4445 22.9905C87.5879 23.2121 87.6596 23.5347 87.6596 23.9584V27.2139H86.2616V26.7837C86.1508 26.9727 86.0009 27.1063 85.8119 27.1845C85.6228 27.2693 85.2644 27.3116 84.7365 27.3116ZM85.2937 26.422C85.5805 26.422 85.7858 26.4122 85.9096 26.3927C86.0009 26.3796 86.0628 26.3601 86.0954 26.334C86.1345 26.3079 86.1671 26.2656 86.1931 26.2069C86.2192 26.1613 86.2322 26.0929 86.2322 26.0016V25.0826H85.2546C85.033 25.0826 84.8766 25.0989 84.7854 25.1315C84.6941 25.1576 84.6322 25.2163 84.5996 25.3075C84.567 25.3922 84.5507 25.5454 84.5507 25.767C84.5507 25.9821 84.567 26.132 84.5996 26.2167C84.6322 26.3014 84.6941 26.3568 84.7854 26.3829C84.8831 26.409 85.0526 26.422 85.2937 26.422Z" fill="#D2D2D2"/>
<path d="M99.8693 22.4822H101.297V24.3983C101.401 24.3983 101.486 24.3853 101.551 24.3592C101.616 24.3266 101.681 24.2712 101.746 24.193L103.115 22.4822H104.601L102.704 24.672C102.972 24.7959 103.232 25.0403 103.487 25.4053L104.748 27.2139H103.105L102.059 25.6692C101.942 25.4998 101.831 25.3922 101.727 25.3466C101.623 25.301 101.479 25.2782 101.297 25.2782V27.2139H99.8693V22.4822Z" fill="#D2D2D2"/>
<path d="M111.996 27.3116C111.703 27.3116 111.462 27.3018 111.273 27.2823C111.084 27.2627 110.882 27.2236 110.667 27.165C110.432 27.0998 110.243 27.0086 110.1 26.8912C109.957 26.7674 109.836 26.5947 109.738 26.3731C109.64 26.158 109.592 25.8973 109.592 25.591V24.193C109.592 23.8802 109.64 23.6064 109.738 23.3718C109.836 23.1372 109.963 22.9547 110.119 22.8243C110.256 22.7135 110.436 22.6223 110.657 22.5506C110.885 22.4724 111.107 22.4235 111.322 22.404C111.57 22.3909 111.794 22.3844 111.996 22.3844C112.296 22.3844 112.534 22.3942 112.71 22.4137C112.893 22.4268 113.091 22.4659 113.307 22.531C113.541 22.6027 113.73 22.7005 113.874 22.8243C114.023 22.9482 114.151 23.1241 114.255 23.3523C114.353 23.5869 114.401 23.8671 114.401 24.193V25.591C114.401 25.8843 114.353 26.1417 114.255 26.3633C114.164 26.5849 114.043 26.7576 113.893 26.8815C113.763 26.9923 113.583 27.0835 113.355 27.1552C113.134 27.2204 112.915 27.2627 112.7 27.2823C112.505 27.3018 112.27 27.3116 111.996 27.3116ZM111.996 26.422C112.264 26.422 112.466 26.4024 112.603 26.3633C112.739 26.3177 112.834 26.2493 112.886 26.158C112.945 26.0668 112.974 25.9332 112.974 25.7572V23.9682C112.974 23.7075 112.906 23.525 112.769 23.4207C112.632 23.3164 112.375 23.2643 111.996 23.2643C111.618 23.2643 111.361 23.3164 111.224 23.4207C111.087 23.525 111.019 23.7075 111.019 23.9682V25.7572C111.019 25.9332 111.045 26.0668 111.097 26.158C111.156 26.2493 111.253 26.3177 111.39 26.3633C111.527 26.4024 111.729 26.422 111.996 26.422Z" fill="#D2D2D2"/>
<path d="M119.864 22.4822H121.683L122.836 25.7474L124.058 22.4822H125.779V27.2139H124.489V24.1637H124.43L123.286 27.2139H122.279L121.174 24.1637H121.116V27.2139H119.864V22.4822Z" fill="#D2D2D2"/>
<path d="M131.385 22.4822H135.97V27.2139H134.542V23.3914H132.812V27.2139H131.385V22.4822Z" fill="#D2D2D2"/>
<path d="M142.908 27.3116C142.465 27.3116 142.132 27.2725 141.911 27.1943C141.695 27.1096 141.542 26.9629 141.451 26.7544C141.366 26.5393 141.324 26.2199 141.324 25.7963C141.324 25.4183 141.37 25.1217 141.461 24.9067C141.559 24.6916 141.712 24.5384 141.92 24.4472C142.135 24.3494 142.429 24.3005 142.8 24.3005H144.403V23.9779C144.403 23.7759 144.374 23.626 144.315 23.5282C144.263 23.4305 144.162 23.362 144.012 23.3229C143.869 23.2838 143.651 23.2643 143.357 23.2643C142.953 23.2643 142.399 23.3034 141.695 23.3816V22.4822C142.21 22.417 142.813 22.3844 143.504 22.3844C144.11 22.3844 144.576 22.43 144.902 22.5213C145.234 22.6125 145.472 22.7689 145.616 22.9905C145.759 23.2121 145.831 23.5347 145.831 23.9584V27.2139H144.433V26.7837C144.322 26.9727 144.172 27.1063 143.983 27.1845C143.794 27.2693 143.436 27.3116 142.908 27.3116ZM143.465 26.422C143.752 26.422 143.957 26.4122 144.081 26.3927C144.172 26.3796 144.234 26.3601 144.267 26.334C144.306 26.3079 144.338 26.2656 144.364 26.2069C144.39 26.1613 144.403 26.0929 144.403 26.0016V25.0826H143.426C143.204 25.0826 143.048 25.0989 142.957 25.1315C142.865 25.1576 142.803 25.2163 142.771 25.3075C142.738 25.3922 142.722 25.5454 142.722 25.767C142.722 25.9821 142.738 26.132 142.771 26.2167C142.803 26.3014 142.865 26.3568 142.957 26.3829C143.054 26.409 143.224 26.422 143.465 26.422Z" fill="#D2D2D2"/>
<path d="M151.437 22.4822H152.864V24.3005H154.653V22.4822H156.081V27.2139H154.653V25.2391H152.864V27.2139H151.437V22.4822Z" fill="#D2D2D2"/>
<path d="M161.678 22.4822H163.105V25.5715L164.973 22.4822H166.4V27.2139H164.973V24.0366L163.105 27.2139H161.678V22.4822Z" fill="#D2D2D2"/>
<path d="M172.005 22.4822H173.432V25.5715L175.299 22.4822H176.727V27.2139H175.299V24.0366L173.432 27.2139H172.005V22.4822ZM174.371 21.9054C173.849 21.9054 173.435 21.775 173.129 21.5143C172.823 21.2536 172.673 20.9049 172.679 20.4683H173.686C173.706 20.729 173.771 20.9212 173.882 21.0451C173.993 21.1689 174.156 21.2308 174.371 21.2308C174.592 21.2308 174.755 21.1722 174.86 21.0548C174.97 20.931 175.036 20.7355 175.055 20.4683H176.062C176.075 20.8984 175.925 21.2471 175.612 21.5143C175.306 21.775 174.892 21.9054 174.371 21.9054Z" fill="#D2D2D2"/>
<path fill-rule="evenodd" clip-rule="evenodd" d="M17.979 0.92041H16.481H12.4679C7.50555 0.92041 1.65537 3.60336 0.21865 12.4755L0.215421 12.4916L14.7698 10.7547L17.979 0.92041ZM0.0798213 13.5377C-0.611094 20.5243 3.25997 25.1283 8.71949 25.1283H14.2081L14.0434 15.2617L0.0798213 13.5377Z" fill="white"/>
<path fill-rule="evenodd" clip-rule="evenodd" d="M28.2334 0.92041H19.1901L19.2095 10.7611L26.5255 11.9751L28.2334 0.92041ZM15.4062 25.1283H24.485L26.2026 14.0187L18.4863 15.2682L15.4062 25.1283Z" fill="#D2D2D2"/>
</svg>
