<svg width="19" height="19" viewBox="0 0 19 19" fill="none" xmlns="http://www.w3.org/2000/svg">
<path d="M9.50001 4.08447C7.55503 4.08447 5.97266 5.66685 5.97266 7.61182C5.97266 9.5568 7.55503 11.1392 9.50001 11.1392C11.445 11.1392 13.0274 9.5568 13.0274 7.61182C13.0274 5.66685 11.445 4.08447 9.50001 4.08447ZM9.50001 9.65399C8.37396 9.65399 7.45785 8.73787 7.45785 7.61182C7.45785 6.48578 8.37396 5.56966 9.50001 5.56966C10.6261 5.56966 11.5422 6.48578 11.5422 7.61182C11.5422 8.73787 10.6261 9.65399 9.50001 9.65399Z" fill="white"/>
<path d="M9.50036 0C5.30325 0 1.88867 3.41462 1.88867 7.61169V7.8221C1.88867 9.94476 3.10564 12.4183 5.50587 15.1739C7.24586 17.1716 8.96153 18.5646 9.03367 18.6229L9.50036 19L9.96705 18.6229C10.0392 18.5646 11.7549 17.1717 13.4949 15.174C15.895 12.4183 17.1121 9.94479 17.1121 7.82214V7.61173C17.1121 3.41462 13.6975 0 9.50036 0ZM15.6269 7.82214C15.6269 11.4093 11.0048 15.7517 9.50036 17.0699C7.99546 15.7513 3.37386 11.4091 3.37386 7.82214V7.61173C3.37386 4.23359 6.12222 1.48523 9.50036 1.48523C12.8785 1.48523 15.6269 4.23359 15.6269 7.61173V7.82214Z" fill="white"/>
</svg>
