<svg width="20" height="20" viewBox="0 0 20 20" fill="none" xmlns="http://www.w3.org/2000/svg">
<path d="M8.3229 16.6669C10.1796 16.6669 11.8865 16.0334 13.2484 14.9829L17.67 19.3684L19.0923 17.9578L14.6707 13.5723C15.7308 12.2205 16.3695 10.5276 16.3695 8.68603C16.3695 4.2856 12.7596 0.7052 8.3229 0.7052C3.88621 0.7052 0.276306 4.2856 0.276306 8.68603C0.276306 13.0865 3.88621 16.6669 8.3229 16.6669ZM8.3229 2.70041C11.6512 2.70041 14.3578 5.38496 14.3578 8.68603C14.3578 11.9871 11.6512 14.6716 8.3229 14.6716C4.99463 14.6716 2.28795 11.9871 2.28795 8.68603C2.28795 5.38496 4.99463 2.70041 8.3229 2.70041Z" fill="white"/>
</svg>
