<svg width="15" height="19" viewBox="0 0 15 19" fill="none" xmlns="http://www.w3.org/2000/svg">
<path d="M7.14453 18.5616C5.88147 17.4869 4.71072 16.3086 3.64453 15.0391C2.04453 13.1327 0.144532 10.2935 0.144532 7.588C0.143114 4.76233 1.84878 2.2143 4.4656 1.13291C7.08242 0.0515113 10.0946 0.64991 12.0965 2.64887C13.413 3.95633 14.1504 5.73484 14.1446 7.588C14.1446 10.2935 12.2445 13.1327 10.6445 15.0391C9.57835 16.3086 8.4076 17.4869 7.14453 18.5616ZM7.14453 4.59519C6.07274 4.59519 5.08236 5.16562 4.54646 6.0916C4.01056 7.01757 4.01056 8.15843 4.54646 9.0844C5.08236 10.0104 6.07274 10.5808 7.14453 10.5808C8.80139 10.5808 10.1445 9.24088 10.1445 7.588C10.1445 5.93512 8.80139 4.59519 7.14453 4.59519Z" fill="#004BB0"/>
</svg>
