<svg width="268" height="42" viewBox="0 0 268 42" fill="none" xmlns="http://www.w3.org/2000/svg">
<g clip-path="url(#clip0_85_193)">
<path d="M73.0868 14.8669H54.878V17.3623H73.0868V14.8669ZM73.0868 9.9017V7.50915H50.6505V2.5697H72.3227C73.681 2.5697 74.9119 3.04992 76.0155 4.01037C76.5588 4.49059 77.0087 5.09088 77.3652 5.81121C77.7388 6.5144 77.9849 7.30334 78.1037 8.17804C78.1207 8.31525 78.1292 8.45245 78.1292 8.58966C78.1463 8.72686 78.1547 8.86407 78.1547 9.00128V22.2761H56.2023C55.1157 22.2761 54.131 22.0531 53.2481 21.6072C52.586 21.2813 52.0087 20.8783 51.5164 20.3981C51.024 19.9178 50.6251 19.3947 50.3195 18.8287C50.0138 18.2627 49.8101 17.6624 49.7082 17.0279C49.6064 16.3762 49.6064 15.7158 49.7082 15.047C49.8101 14.4124 50.0138 13.8121 50.3195 13.2461C50.6251 12.6801 51.007 12.1742 51.4654 11.7283C51.9238 11.2824 52.4417 10.905 53.0189 10.5963C53.6132 10.2876 54.2498 10.0818 54.929 9.97888C55.2515 9.92743 55.5826 9.9017 55.9221 9.9017H73.0868Z" fill="#004BB0"/>
<path d="M86.9859 22.3791V7.6636H104.685V22.3791H109.83V2.64697H87.9536C87.1896 2.64697 86.4425 2.83563 85.7125 3.21295C84.9995 3.59026 84.3543 4.08764 83.777 4.70508C83.2168 5.30536 82.7669 5.99139 82.4273 6.76318C82.0877 7.51782 81.918 8.28961 81.918 9.07856V22.3791H86.9859Z" fill="#004BB0"/>
<path d="M135.048 22.3791C135.914 22.3791 136.763 22.2333 137.595 21.9417C138.427 21.633 139.165 21.2128 139.81 20.6811C140.455 20.1323 140.973 19.4805 141.363 18.7259C141.771 17.9712 141.975 17.148 141.975 16.2562C141.975 15.3815 141.805 14.5669 141.466 13.8122C141.126 13.0576 140.66 12.3972 140.065 11.8313C139.487 11.2653 138.809 10.8194 138.028 10.4935C137.263 10.1676 136.466 10.0047 135.634 10.0047H118.724V2.64697H113.579V22.3791H135.048ZM118.724 17.3882V14.867H136.805V17.3882H118.724Z" fill="#004BB0"/>
<path d="M145.713 2.67285V7.63804H157.021V22.2763H162.012V7.63804H173.345V2.67285H145.713Z" fill="#004BB0"/>
<path d="M200.429 14.8669H182.221V17.3623H200.429V14.8669ZM200.429 9.9017V7.50915H177.993V2.5697H199.666C201.024 2.5697 202.254 3.04992 203.358 4.01037C203.902 4.49059 204.351 5.09088 204.708 5.81121C205.082 6.5144 205.327 7.30334 205.446 8.17804C205.463 8.31525 205.472 8.45245 205.472 8.58966C205.488 8.72686 205.497 8.86407 205.497 9.00128V22.2761H183.545C182.458 22.2761 181.473 22.0531 180.59 21.6072C179.928 21.2813 179.352 20.8783 178.859 20.3981C178.366 19.9178 177.967 19.3947 177.662 18.8287C177.356 18.2627 177.153 17.6624 177.051 17.0279C176.949 16.3762 176.949 15.7158 177.051 15.047C177.153 14.4124 177.356 13.8121 177.662 13.2461C177.967 12.6801 178.35 12.1742 178.808 11.7283C179.267 11.2824 179.785 10.905 180.361 10.5963C180.956 10.2876 181.592 10.0818 182.272 9.97888C182.594 9.92743 182.925 9.9017 183.265 9.9017H200.429Z" fill="#004BB0"/>
<path d="M226.705 2.67269L218.199 7.68933C217.316 8.221 216.594 8.73554 216.034 9.23291C215.474 9.71314 215.024 10.3306 214.684 11.0852V2.64697H209.26V22.2761H214.684V13.9409C214.99 14.7126 215.389 15.3386 215.882 15.8188C216.391 16.2819 217.062 16.7364 217.894 17.1823L226.705 22.2761H236.892L220.033 12.4744L236.764 2.67269H226.705Z" fill="#004BB0"/>
<path d="M247.525 2.72412C246.658 2.72412 245.81 2.8699 244.978 3.16147C244.163 3.43588 243.424 3.83035 242.762 4.34488C242.116 4.85941 241.599 5.47684 241.208 6.19717C240.818 6.90036 240.623 7.67215 240.623 8.51254V15.9475C240.623 16.8564 240.775 17.6969 241.081 18.4687C241.404 19.2233 241.837 19.8836 242.379 20.4496C242.941 20.9984 243.594 21.4271 244.34 21.7358C245.105 22.0446 245.928 22.199 246.811 22.199H261.811C262.609 22.199 263.382 22.0446 264.129 21.7358C264.875 21.41 265.53 20.9812 266.09 20.4496C266.666 19.9007 267.125 19.2661 267.464 18.5458C267.821 17.8254 268 17.0537 268 16.2305V8.97562C268 8.15237 267.83 7.36343 267.49 6.60879C267.15 5.83701 266.701 5.16812 266.141 4.60214C265.58 4.03616 264.926 3.58166 264.179 3.23865C263.449 2.89563 262.686 2.72412 261.888 2.72412H247.525ZM262.881 7.79221V17.2852H245.64V7.79221H262.881Z" fill="#004BB0"/>
<path d="M51.5078 31.0913H56.7518V32.532H53.6768V38.3547H51.5078V31.0913Z" fill="#C1C1C1"/>
<path d="M64.6035 31.091H66.6536V31.8113C66.7823 31.4911 67.0349 31.2661 67.4113 31.136C67.7876 31.006 68.3471 30.9409 69.0899 30.9409C69.7138 30.9409 70.214 30.991 70.5903 31.091C70.9766 31.191 71.2687 31.3511 71.4668 31.5712C71.655 31.7913 71.7837 32.0364 71.8531 32.3066C71.9224 32.5667 71.957 32.9269 71.957 33.387V35.7732C71.957 36.4935 71.8531 37.0488 71.6451 37.4389C71.4371 37.8292 71.1152 38.1043 70.6795 38.2644C70.2536 38.4244 69.6693 38.5044 68.9265 38.5044C68.2134 38.5044 67.6984 38.4444 67.3815 38.3244C67.0646 38.2043 66.8616 37.9692 66.7724 37.619V41.4758H64.6035V31.091ZM68.258 37.1388C68.6839 37.1388 69.0058 37.1088 69.2236 37.0488C69.4415 36.9887 69.5901 36.8837 69.6693 36.7337C69.7485 36.5836 69.7882 36.3584 69.7882 36.0583V33.372C69.7882 33.0419 69.7535 32.8068 69.6841 32.6668C69.6148 32.5167 69.4762 32.4166 69.2682 32.3666C69.0602 32.3166 68.7185 32.2916 68.2431 32.2916C67.8371 32.2916 67.5251 32.3266 67.3072 32.3966C67.0993 32.4667 66.9557 32.5767 66.8764 32.7268C66.8071 32.8768 66.7724 33.092 66.7724 33.372V36.0583C66.7724 36.3584 66.8071 36.5836 66.8764 36.7337C66.9557 36.8837 67.0993 36.9887 67.3072 37.0488C67.5152 37.1088 67.8321 37.1388 68.258 37.1388Z" fill="#C1C1C1"/>
<path d="M82.3027 38.2947L79.4355 31.0913H81.7976L83.4169 36.2237L84.8876 31.0913H87.1308L83.194 41.4762H80.9954L82.3027 38.2947Z" fill="#C1C1C1"/>
<path d="M94.8135 31.0913H101.781V38.3547H99.612V32.4869H96.9822V38.3547H94.8135V31.0913Z" fill="#C1C1C1"/>
<path d="M110.289 31.0913H117.256V38.3547H115.087V32.4869H112.458V38.3547H110.289V31.0913Z" fill="#C1C1C1"/>
<path d="M127.799 38.5044C127.126 38.5044 126.621 38.4444 126.283 38.3244C125.957 38.1943 125.724 37.9692 125.585 37.6491C125.456 37.3189 125.393 36.8287 125.393 36.1784C125.393 35.5981 125.462 35.1429 125.6 34.8128C125.749 34.4826 125.982 34.2474 126.299 34.1074C126.626 33.9573 127.071 33.8823 127.636 33.8823H130.072V33.387C130.072 33.077 130.028 32.8468 129.938 32.6968C129.859 32.5467 129.706 32.4416 129.477 32.3816C129.259 32.3215 128.928 32.2916 128.482 32.2916C127.868 32.2916 127.027 32.3515 125.957 32.4716V31.091C126.739 30.991 127.655 30.9409 128.705 30.9409C129.627 30.9409 130.334 31.0109 130.83 31.151C131.335 31.2911 131.696 31.5312 131.914 31.8713C132.132 32.2115 132.241 32.7067 132.241 33.357V38.3544H130.116V37.6941C129.948 37.9842 129.72 38.1893 129.433 38.3094C129.146 38.4395 128.601 38.5044 127.799 38.5044ZM128.646 37.1388C129.082 37.1388 129.393 37.1238 129.581 37.0938C129.72 37.0738 129.815 37.0437 129.864 37.0037C129.924 36.9637 129.973 36.8987 130.012 36.8087C130.052 36.7386 130.072 36.6336 130.072 36.4935V35.0829H128.586C128.25 35.0829 128.012 35.1078 127.873 35.1579C127.734 35.1979 127.641 35.288 127.591 35.428C127.541 35.558 127.516 35.7932 127.516 36.1334C127.516 36.4635 127.541 36.6936 127.591 36.8237C127.641 36.9538 127.734 37.0388 127.873 37.0788C128.021 37.1188 128.279 37.1388 128.646 37.1388Z" fill="#C1C1C1"/>
<path d="M150.794 31.0913H152.962V34.0327C153.121 34.0327 153.249 34.0127 153.349 33.9726C153.448 33.9227 153.547 33.8376 153.646 33.7175L155.726 31.0913H157.984L155.101 34.4528C155.508 34.6429 155.904 35.0182 156.29 35.5784L158.206 38.3547H155.71L154.121 35.9836C153.943 35.7235 153.775 35.5584 153.616 35.4883C153.458 35.4183 153.24 35.3834 152.962 35.3834V38.3547H150.794V31.0913Z" fill="#C1C1C1"/>
<path d="M169.221 38.5044C168.776 38.5044 168.409 38.4894 168.122 38.4594C167.835 38.4294 167.528 38.3693 167.201 38.2794C166.845 38.1794 166.557 38.0392 166.34 37.8592C166.122 37.6691 165.939 37.404 165.79 37.0638C165.642 36.7337 165.566 36.3334 165.566 35.8632V33.7172C165.566 33.237 165.642 32.8168 165.79 32.4566C165.939 32.0965 166.131 31.8163 166.369 31.6163C166.577 31.4462 166.85 31.3061 167.186 31.1961C167.533 31.076 167.869 31.0009 168.196 30.9709C168.572 30.9509 168.914 30.9409 169.221 30.9409C169.677 30.9409 170.039 30.9559 170.306 30.9859C170.583 31.006 170.885 31.066 171.212 31.1661C171.568 31.2761 171.856 31.4262 172.074 31.6163C172.301 31.8063 172.495 32.0764 172.653 32.4266C172.801 32.7868 172.876 33.217 172.876 33.7172V35.8632C172.876 36.3135 172.801 36.7086 172.653 37.0488C172.514 37.389 172.331 37.6541 172.103 37.8442C171.905 38.0142 171.633 38.1543 171.286 38.2644C170.95 38.3644 170.618 38.4294 170.291 38.4594C169.994 38.4894 169.637 38.5044 169.221 38.5044ZM169.221 37.1388C169.628 37.1388 169.934 37.1088 170.143 37.0488C170.35 36.9788 170.494 36.8737 170.574 36.7337C170.662 36.5935 170.707 36.3884 170.707 36.1183V33.372C170.707 32.9719 170.602 32.6917 170.395 32.5317C170.187 32.3716 169.796 32.2916 169.221 32.2916C168.646 32.2916 168.256 32.3716 168.048 32.5317C167.84 32.6917 167.735 32.9719 167.735 33.372V36.1183C167.735 36.3884 167.775 36.5935 167.855 36.7337C167.944 36.8737 168.092 36.9788 168.3 37.0488C168.509 37.1088 168.815 37.1388 169.221 37.1388Z" fill="#C1C1C1"/>
<path d="M181.178 31.0913H183.941L185.694 36.1036L187.551 31.0913H190.165V38.3547H188.205V33.6725H188.116L186.378 38.3547H184.847L183.168 33.6725H183.08V38.3547H181.178V31.0913Z" fill="#C1C1C1"/>
<path d="M198.684 31.0913H205.652V38.3547H203.483V32.4869H200.853V38.3547H198.684V31.0913Z" fill="#C1C1C1"/>
<path d="M216.194 38.5044C215.52 38.5044 215.015 38.4444 214.679 38.3244C214.352 38.1943 214.12 37.9692 213.981 37.6491C213.852 37.3189 213.787 36.8287 213.787 36.1784C213.787 35.5981 213.857 35.1429 213.995 34.8128C214.144 34.4826 214.377 34.2474 214.693 34.1074C215.02 33.9573 215.466 33.8823 216.03 33.8823H218.466V33.387C218.466 33.077 218.422 32.8468 218.333 32.6968C218.254 32.5467 218.1 32.4416 217.873 32.3816C217.655 32.3215 217.323 32.2916 216.878 32.2916C216.264 32.2916 215.421 32.3515 214.352 32.4716V31.091C215.135 30.991 216.051 30.9409 217.1 30.9409C218.021 30.9409 218.73 31.0109 219.224 31.151C219.729 31.2911 220.091 31.5312 220.309 31.8713C220.527 32.2115 220.636 32.7067 220.636 33.357V38.3544H218.512V37.6941C218.343 37.9842 218.116 38.1893 217.828 38.3094C217.541 38.4395 216.996 38.5044 216.194 38.5044ZM217.041 37.1388C217.476 37.1388 217.789 37.1238 217.977 37.0938C218.116 37.0738 218.209 37.0437 218.259 37.0037C218.318 36.9637 218.368 36.8987 218.408 36.8087C218.447 36.7386 218.466 36.6336 218.466 36.4935V35.0829H216.981C216.644 35.0829 216.407 35.1078 216.269 35.1579C216.13 35.1979 216.035 35.288 215.986 35.428C215.937 35.558 215.912 35.7932 215.912 36.1334C215.912 36.4635 215.937 36.6936 215.986 36.8237C216.035 36.9538 216.13 37.0388 216.269 37.0788C216.417 37.1188 216.674 37.1388 217.041 37.1388Z" fill="#C1C1C1"/>
<path d="M229.154 31.0913H231.323V33.8827H234.042V31.0913H236.211V38.3547H234.042V35.3233H231.323V38.3547H229.154V31.0913Z" fill="#C1C1C1"/>
<path d="M244.717 31.0913H246.886V35.8336L249.723 31.0913H251.892V38.3547H249.723V33.4774L246.886 38.3547H244.717V31.0913Z" fill="#C1C1C1"/>
<path d="M260.409 31.0905H262.578V35.8328L265.415 31.0905H267.584V38.3539H265.415V33.4766L262.578 38.3539H260.409V31.0905ZM264.004 30.2051C263.212 30.2051 262.583 30.005 262.117 29.6048C261.652 29.2046 261.424 28.6694 261.434 27.999H262.964C262.994 28.3993 263.093 28.6944 263.262 28.8844C263.429 29.0745 263.677 29.1696 264.004 29.1696C264.34 29.1696 264.588 29.0796 264.747 28.8994C264.915 28.7094 265.014 28.4093 265.044 27.999H266.574C266.594 28.6594 266.366 29.1946 265.891 29.6048C265.425 30.005 264.796 30.2051 264.004 30.2051Z" fill="#C1C1C1"/>
<path fill-rule="evenodd" clip-rule="evenodd" d="M26.0539 1.63281H23.8949H18.1114C10.9601 1.63281 2.52916 6.08625 0.45866 20.8131L0.454005 20.8399L21.4289 17.9567L26.0539 1.63281ZM0.258588 22.5763C-0.737115 34.1735 4.84162 41.8156 12.7096 41.8156H20.6193L20.382 25.438L0.258588 22.5763Z" fill="#004BB0"/>
<path fill-rule="evenodd" clip-rule="evenodd" d="M40.8314 1.63281H27.7988L27.8268 17.9674L38.3701 19.9825L40.8314 1.63281ZM22.3457 41.8156H35.4295L37.9047 23.3748L26.7846 25.4488L22.3457 41.8156Z" fill="#C1C1C1"/>
</g>
<defs>
<clipPath id="clip0_85_193">
<rect width="268" height="40.9017" fill="white" transform="translate(0 0.914062)"/>
</clipPath>
</defs>
</svg>
